<svg width="193" height="56" viewBox="0 0 193 56" fill="none" xmlns="http://www.w3.org/2000/svg">
<g id="Group">
<path id="BG" d="M191.929 49.5417C191.929 52.5261 189.475 54.9434 186.439 54.9434H6.78121C3.74703 54.9434 1.28418 52.5261 1.28418 49.5417V6.46531C1.28418 3.48241 3.74703 1.0566 6.78121 1.0566H186.438C189.475 1.0566 191.928 3.48241 191.928 6.46531L191.929 49.5417Z" fill="#0E0E0E"/>
<g id="Icon">
<g id="Vector">
<path d="M43.2375 27.6976C43.1961 23.1854 47.0062 20.9902 47.1804 20.888C45.0226 17.8038 41.6781 17.3824 40.5028 17.3488C37.6938 17.059 34.9691 18.9966 33.5382 18.9966C32.0788 18.9966 29.8753 17.3768 27.5004 17.4244C24.4444 17.4706 21.5854 19.2052 20.0174 21.8988C16.7815 27.391 19.1949 35.462 22.2952 39.9014C23.846 42.0756 25.6582 44.5032 28.0302 44.4178C30.3508 44.324 31.2176 42.9674 34.018 42.9674C36.7927 42.9674 37.6067 44.4178 40.0259 44.3632C42.5164 44.324 44.0844 42.1792 45.581 39.9854C47.3732 37.4934 48.0929 35.0392 48.1215 34.9132C48.0629 34.8936 43.2847 33.1058 43.2375 27.6976Z" fill="white"/>
<path d="M38.6678 14.4284C39.9159 12.8982 40.7699 10.8164 40.5328 8.70379C38.7263 8.78219 36.4672 9.92879 35.1662 11.4254C34.0152 12.7442 32.987 14.9058 33.2526 16.9386C35.2819 17.087 37.3654 15.9348 38.6678 14.4284Z" fill="white"/>
</g>
</g>
<g id="Download on the">
<path id="D" d="M70.2591 14.0126C70.2591 15.6604 69.755 16.9008 68.7482 17.7338C67.8157 18.5024 66.4904 18.8874 64.7739 18.8874C63.9228 18.8874 63.1945 18.851 62.5847 18.7782V9.7748C63.3801 9.6488 64.237 9.5844 65.1624 9.5844C66.7975 9.5844 68.0299 9.933 68.861 10.6302C69.7921 11.4184 70.2591 12.5454 70.2591 14.0126ZM68.6811 14.0532C68.6811 12.985 68.3926 12.166 67.8157 11.5948C67.2387 11.025 66.3962 10.7394 65.2866 10.7394C64.8153 10.7394 64.4141 10.7702 64.0813 10.8346V17.6792C64.2655 17.7072 64.6026 17.7198 65.0924 17.7198C66.2377 17.7198 67.1216 17.4076 67.7443 16.7832C68.3669 16.1588 68.6811 15.2488 68.6811 14.0532Z" fill="white"/>
<path id="o" d="M78.626 15.4518C78.626 16.4668 78.3304 17.2984 77.7392 17.9508C77.1194 18.6214 76.2983 18.956 75.273 18.956C74.2848 18.956 73.4979 18.6354 72.911 17.9914C72.3255 17.3488 72.0327 16.5382 72.0327 15.561C72.0327 14.539 72.334 13.7004 72.9395 13.0494C73.545 12.3984 74.359 12.0722 75.3844 12.0722C76.3726 12.0722 77.1666 12.3928 77.7678 13.0354C78.339 13.6598 78.626 14.4662 78.626 15.4518ZM77.0737 15.4994C77.0737 14.8904 76.9395 14.3682 76.6725 13.9328C76.3583 13.4064 75.9113 13.1432 75.3301 13.1432C74.7289 13.1432 74.2719 13.4064 73.9577 13.9328C73.6893 14.3682 73.5564 14.8988 73.5564 15.526C73.5564 16.135 73.6907 16.6572 73.9577 17.0926C74.2819 17.619 74.7332 17.8822 75.3158 17.8822C75.887 17.8822 76.3354 17.6148 76.6582 17.0786C76.9352 16.6348 77.0737 16.1084 77.0737 15.4994Z" fill="white"/>
<path id="w" d="M89.8448 12.2066L87.7384 18.8062H86.3675L85.4949 15.9404C85.2736 15.225 85.0936 14.5138 84.9537 13.8082H84.9266C84.7966 14.5334 84.6167 15.2432 84.3853 15.9404L83.4585 18.8062H82.0719L80.0912 12.2066H81.6292L82.3903 15.344C82.5746 16.086 82.7259 16.793 82.8473 17.4622H82.8745C82.9858 16.9106 83.1701 16.2078 83.43 15.358L84.3853 12.208H85.6049L86.5203 15.2908C86.7416 16.0426 86.9215 16.7664 87.0601 17.4636H87.1015C87.2029 16.7846 87.3557 16.0608 87.5585 15.2908L88.3753 12.208H89.8448V12.2066Z" fill="white"/>
<path id="n" d="M97.6033 18.8062H96.1067V15.0262C96.1067 13.8614 95.6555 13.279 94.7501 13.279C94.306 13.279 93.9475 13.4386 93.6691 13.7592C93.3934 14.0798 93.2535 14.4578 93.2535 14.8904V18.8048H91.7569V14.0924C91.7569 13.5128 91.7383 12.8842 91.7026 12.2038H93.0179L93.0878 13.2356H93.1293C93.3035 12.915 93.5634 12.6504 93.9047 12.439C94.3103 12.1926 94.7644 12.068 95.2613 12.068C95.8897 12.068 96.4123 12.2668 96.8279 12.6658C97.3448 13.1544 97.6033 13.8838 97.6033 14.8526V18.8062Z" fill="white"/>
<path id="l" d="M101.73 18.8062H100.235V9.17839H101.73V18.8062Z" fill="white"/>
<path id="o_2" d="M110.542 15.4518C110.542 16.4668 110.246 17.2984 109.655 17.9508C109.035 18.6214 108.212 18.956 107.188 18.956C106.199 18.956 105.412 18.6354 104.826 17.9914C104.241 17.3488 103.948 16.5382 103.948 15.561C103.948 14.539 104.25 13.7004 104.855 13.0494C105.461 12.3984 106.275 12.0722 107.298 12.0722C108.288 12.0722 109.081 12.3928 109.683 13.0354C110.255 13.6598 110.542 14.4662 110.542 15.4518ZM108.988 15.4994C108.988 14.8904 108.854 14.3682 108.587 13.9328C108.274 13.4064 107.825 13.1432 107.246 13.1432C106.643 13.1432 106.186 13.4064 105.873 13.9328C105.605 14.3682 105.472 14.8988 105.472 15.526C105.472 16.135 105.606 16.6572 105.873 17.0926C106.197 17.619 106.649 17.8822 107.231 17.8822C107.803 17.8822 108.25 17.6148 108.572 17.0786C108.851 16.6348 108.988 16.1084 108.988 15.4994Z" fill="white"/>
<path id="a" d="M117.785 18.8062H116.441L116.329 18.046H116.288C115.828 18.6522 115.173 18.956 114.322 18.956C113.686 18.956 113.172 18.7558 112.785 18.3582C112.434 17.997 112.258 17.5476 112.258 17.0142C112.258 16.2078 112.601 15.5932 113.291 15.1676C113.979 14.742 114.947 14.5334 116.194 14.5432V14.42C116.194 13.5506 115.728 13.1166 114.796 13.1166C114.132 13.1166 113.546 13.2804 113.041 13.6052L112.736 12.642C113.362 12.2626 114.135 12.0722 115.046 12.0722C116.805 12.0722 117.687 12.9822 117.687 14.8022V17.2326C117.687 17.892 117.72 18.417 117.785 18.8062ZM116.231 16.5382V15.5204C114.58 15.4924 113.755 15.9362 113.755 16.8504C113.755 17.1948 113.849 17.4524 114.042 17.6246C114.234 17.7968 114.48 17.8822 114.773 17.8822C115.101 17.8822 115.408 17.78 115.688 17.577C115.97 17.3726 116.142 17.1136 116.207 16.7958C116.222 16.7244 116.231 16.6376 116.231 16.5382Z" fill="white"/>
<path id="d" d="M126.289 18.8062H124.961L124.891 17.7464H124.849C124.425 18.5528 123.702 18.956 122.687 18.956C121.876 18.956 121.201 18.6438 120.665 18.0194C120.129 17.395 119.862 16.5844 119.862 15.589C119.862 14.5208 120.152 13.6556 120.735 12.9948C121.299 12.3788 121.99 12.0708 122.813 12.0708C123.717 12.0708 124.349 12.369 124.709 12.9668H124.738V9.17839H126.236V17.0282C126.236 17.6708 126.253 18.263 126.289 18.8062ZM124.738 16.023V14.9226C124.738 14.7322 124.723 14.5782 124.696 14.4606C124.612 14.1078 124.431 13.811 124.155 13.5716C123.877 13.3322 123.541 13.2118 123.154 13.2118C122.596 13.2118 122.159 13.4288 121.837 13.8642C121.519 14.2996 121.358 14.8554 121.358 15.5344C121.358 16.1868 121.51 16.716 121.817 17.1234C122.142 17.5574 122.579 17.7744 123.126 17.7744C123.617 17.7744 124.009 17.5938 124.308 17.2312C124.596 16.8966 124.738 16.4934 124.738 16.023Z" fill="white"/>
<path id="o_3" d="M139.088 15.4518C139.088 16.4668 138.793 17.2984 138.201 17.9508C137.582 18.6214 136.762 18.956 135.735 18.956C134.748 18.956 133.962 18.6354 133.373 17.9914C132.788 17.3488 132.495 16.5382 132.495 15.561C132.495 14.539 132.796 13.7004 133.402 13.0494C134.007 12.3984 134.821 12.0722 135.848 12.0722C136.835 12.0722 137.63 12.3928 138.23 13.0354C138.801 13.6598 139.088 14.4662 139.088 15.4518ZM137.537 15.4994C137.537 14.8904 137.403 14.3682 137.136 13.9328C136.821 13.4064 136.375 13.1432 135.792 13.1432C135.193 13.1432 134.736 13.4064 134.42 13.9328C134.152 14.3682 134.019 14.8988 134.019 15.526C134.019 16.135 134.153 16.6572 134.42 17.0926C134.744 17.619 135.195 17.8822 135.778 17.8822C136.349 17.8822 136.799 17.6148 137.122 17.0786C137.397 16.6348 137.537 16.1084 137.537 15.4994Z" fill="white"/>
<path id="n_2" d="M147.135 18.8062H145.64V15.0262C145.64 13.8614 145.189 13.279 144.282 13.279C143.838 13.279 143.48 13.4386 143.203 13.7592C142.925 14.0798 142.787 14.4578 142.787 14.8904V18.8048H141.289V14.0924C141.289 13.5128 141.272 12.8842 141.236 12.2038H142.55L142.62 13.2356H142.661C142.837 12.915 143.097 12.6504 143.437 12.439C143.844 12.1926 144.296 12.068 144.795 12.068C145.422 12.068 145.944 12.2668 146.36 12.6658C146.878 13.1544 147.135 13.8838 147.135 14.8526V18.8062Z" fill="white"/>
<path id="t" d="M157.207 13.3056H155.559V16.5116C155.559 17.3264 155.852 17.7338 156.432 17.7338C156.7 17.7338 156.923 17.7114 157.099 17.6652L157.137 18.7782C156.842 18.8874 156.453 18.942 155.975 18.942C155.384 18.942 154.924 18.7656 154.591 18.4128C154.257 18.06 154.091 17.4664 154.091 16.6334V13.3056H153.107V12.2066H154.091V10.997L155.558 10.563V12.2052H157.206V13.3056H157.207Z" fill="white"/>
<path id="h" d="M165.13 18.8062H163.632V15.0542C163.632 13.8712 163.181 13.279 162.277 13.279C161.583 13.279 161.109 13.622 160.849 14.308C160.805 14.4522 160.779 14.6286 160.779 14.8358V18.8048H159.284V9.17839H160.779V13.1558H160.807C161.279 12.432 161.954 12.0708 162.83 12.0708C163.449 12.0708 163.962 12.2696 164.369 12.6686C164.876 13.1656 165.13 13.9048 165.13 14.882V18.8062Z" fill="white"/>
<path id="e" d="M173.303 15.1942C173.303 15.4574 173.283 15.6786 173.247 15.8592H168.759C168.779 16.5116 168.993 17.0086 169.409 17.353C169.788 17.661 170.278 17.815 170.878 17.815C171.542 17.815 172.148 17.7114 172.693 17.5028L172.927 18.522C172.289 18.7936 171.538 18.9294 170.668 18.9294C169.626 18.9294 168.804 18.6284 168.21 18.0264C167.613 17.4244 167.318 16.6166 167.318 15.603C167.318 14.6076 167.593 13.7788 168.149 13.118C168.729 12.4124 169.513 12.0596 170.502 12.0596C171.471 12.0596 172.206 12.4124 172.703 13.118C173.104 13.678 173.303 14.371 173.303 15.1942ZM171.875 14.8148C171.886 14.3794 171.788 14.0042 171.585 13.6878C171.325 13.2804 170.929 13.076 170.394 13.076C169.905 13.076 169.507 13.2748 169.203 13.6738C168.954 13.9916 168.807 14.371 168.759 14.8148H171.875Z" fill="white"/>
</g>
<g id="App Store">
<path id="A" d="M76.8209 44.1056H73.5778L71.8013 38.633H65.6264L63.9342 44.1056H60.7767L66.8945 25.4744H70.6731L76.8209 44.1056ZM71.2658 36.337L69.6592 31.472C69.4893 30.975 69.1708 29.8046 68.701 27.9622H68.6439C68.4568 28.7546 68.1555 29.925 67.7413 31.472L66.1633 36.337H71.2658Z" fill="white"/>
<path id="p" d="M92.5538 37.2232C92.5538 39.508 91.924 41.314 90.6645 42.6398C89.5363 43.82 88.1354 44.4094 86.4632 44.4094C84.6581 44.4094 83.3614 43.7738 82.5717 42.5026H82.5146V49.5796H79.47V35.0938C79.47 33.6574 79.4314 32.1832 79.3572 30.6712H82.0348L82.2047 32.8006H82.2618C83.2772 31.1962 84.818 30.3954 86.8859 30.3954C88.5024 30.3954 89.8519 31.0212 90.9315 32.2742C92.014 33.5286 92.5538 35.1778 92.5538 37.2232ZM89.4521 37.3324C89.4521 36.0248 89.1522 34.9468 88.5495 34.0984C87.8912 33.2136 87.0072 32.7712 85.8991 32.7712C85.1479 32.7712 84.4653 33.0176 83.8555 33.5034C83.2443 33.9934 82.8445 34.6332 82.6574 35.4256C82.5631 35.7952 82.516 36.0976 82.516 36.3356V38.5756C82.516 39.5528 82.8216 40.3774 83.4328 41.0508C84.044 41.7242 84.838 42.0602 85.8148 42.0602C86.9616 42.0602 87.8541 41.6262 88.4924 40.761C89.1322 39.8944 89.4521 38.752 89.4521 37.3324Z" fill="white"/>
<path id="p_2" d="M108.315 37.2232C108.315 39.508 107.685 41.314 106.424 42.6398C105.298 43.82 103.897 44.4094 102.225 44.4094C100.419 44.4094 99.1228 43.7738 98.3345 42.5026H98.2774V49.5796H95.2328V35.0938C95.2328 33.6574 95.1943 32.1832 95.12 30.6712H97.7976L97.9675 32.8006H98.0246C99.0386 31.1962 100.579 30.3954 102.649 30.3954C104.264 30.3954 105.613 31.0212 106.696 32.2742C107.774 33.5286 108.315 35.1778 108.315 37.2232ZM105.213 37.3324C105.213 36.0248 104.912 34.9468 104.31 34.0984C103.651 33.2136 102.77 32.7712 101.66 32.7712C100.908 32.7712 100.227 33.0176 99.6155 33.5034C99.0043 33.9934 98.6059 34.6332 98.4188 35.4256C98.326 35.7952 98.2774 36.0976 98.2774 36.3356V38.5756C98.2774 39.5528 98.583 40.3774 99.1914 41.0508C99.8026 41.7228 100.597 42.0602 101.576 42.0602C102.723 42.0602 103.615 41.6262 104.254 40.761C104.894 39.8944 105.213 38.752 105.213 37.3324Z" fill="white"/>
<path id="S" d="M125.937 38.8808C125.937 40.4656 125.376 41.755 124.249 42.7504C123.011 43.8382 121.288 44.3814 119.073 44.3814C117.028 44.3814 115.388 43.995 114.147 43.2208L114.853 40.733C116.189 41.5254 117.656 41.923 119.254 41.923C120.401 41.923 121.293 41.6682 121.935 41.1614C122.573 40.6546 122.891 39.9742 122.891 39.1258C122.891 38.3698 122.629 37.7328 122.102 37.2162C121.577 36.6996 120.702 36.2194 119.48 35.7756C116.152 34.559 114.49 32.7768 114.49 30.4332C114.49 28.9016 115.073 27.6458 116.239 26.6686C117.402 25.69 118.953 25.2014 120.892 25.2014C122.621 25.2014 124.058 25.4968 125.205 26.0862L124.444 28.5194C123.373 27.9482 122.162 27.6626 120.806 27.6626C119.735 27.6626 118.898 27.9216 118.299 28.4368C117.792 28.8974 117.538 29.4588 117.538 30.1238C117.538 30.8602 117.827 31.4692 118.41 31.948C118.917 32.3904 119.838 32.8692 121.175 33.3858C122.81 34.0312 124.011 34.7858 124.783 35.651C125.553 36.5134 125.937 37.5928 125.937 38.8808Z" fill="white"/>
<path id="t_2" d="M136.004 32.9112H132.648V39.4338C132.648 41.0928 133.239 41.9216 134.424 41.9216C134.968 41.9216 135.42 41.8754 135.777 41.783L135.861 44.0496C135.261 44.2694 134.471 44.38 133.493 44.38C132.291 44.38 131.351 44.0202 130.673 43.302C129.997 42.5824 129.657 41.3756 129.657 39.6802V32.9084H127.658V30.6684H129.657V28.2086L132.648 27.3238V30.6684H136.004V32.9112Z" fill="white"/>
<path id="o_4" d="M151.145 37.2778C151.145 39.3428 150.543 41.0382 149.34 42.364C148.079 43.729 146.406 44.4094 144.319 44.4094C142.308 44.4094 140.708 43.7556 139.514 42.448C138.32 41.1404 137.723 39.4898 137.723 37.5004C137.723 35.4186 138.337 33.7134 139.569 32.3876C140.799 31.0604 142.458 30.3968 144.545 30.3968C146.556 30.3968 148.173 31.0506 149.394 32.3596C150.563 33.6294 151.145 35.2688 151.145 37.2778ZM147.986 37.3744C147.986 36.1354 147.717 35.0728 147.17 34.1866C146.531 33.1142 145.619 32.5794 144.436 32.5794C143.212 32.5794 142.283 33.1156 141.644 34.1866C141.098 35.0742 140.828 36.1536 140.828 37.4304C140.828 38.6694 141.098 39.732 141.644 40.6168C142.303 41.6892 143.222 42.224 144.409 42.224C145.572 42.224 146.484 41.678 147.142 40.5888C147.704 39.6858 147.986 38.612 147.986 37.3744Z" fill="white"/>
<path id="r" d="M161.042 33.2962C160.74 33.2416 160.419 33.2136 160.082 33.2136C159.011 33.2136 158.183 33.6098 157.6 34.4036C157.093 35.1036 156.839 35.9884 156.839 37.0566V44.1056H153.796L153.824 34.902C153.824 33.3536 153.786 31.9438 153.71 30.6726H156.362L156.473 33.243H156.558C156.879 32.3596 157.386 31.6484 158.08 31.115C158.758 30.6348 159.491 30.3954 160.281 30.3954C160.562 30.3954 160.816 30.415 161.042 30.45V33.2962Z" fill="white"/>
<path id="e_2" d="M174.658 36.7528C174.658 37.2876 174.622 37.7384 174.547 38.1066H165.413C165.449 39.4338 165.89 40.4488 166.738 41.1488C167.508 41.7746 168.503 42.0882 169.726 42.0882C171.078 42.0882 172.312 41.8768 173.421 41.4526L173.898 43.5246C172.602 44.079 171.071 44.3548 169.304 44.3548C167.179 44.3548 165.511 43.7416 164.298 42.5166C163.087 41.2916 162.48 39.6466 162.48 37.583C162.48 35.5572 163.044 33.8702 164.173 32.5248C165.356 31.0884 166.954 30.3702 168.965 30.3702C170.94 30.3702 172.435 31.0884 173.45 32.5248C174.254 33.6658 174.658 35.077 174.658 36.7528ZM171.755 35.9786C171.775 35.0938 171.576 34.3294 171.164 33.684C170.637 32.8538 169.827 32.4394 168.737 32.4394C167.742 32.4394 166.932 32.844 166.314 33.656C165.807 34.3014 165.506 35.0756 165.413 35.9772H171.755V35.9786Z" fill="white"/>
</g>
</g>
</svg>
