<svg width="28" height="28" viewBox="0 0 28 28" fill="none" xmlns="http://www.w3.org/2000/svg">
<path d="M11.0238 23.9319L23.7253 13.4447C24.0634 13.1659 24.3069 12.7892 24.4224 12.3665C24.538 11.9437 24.5198 11.4955 24.3706 11.0835C24.2213 10.6714 23.9482 10.3156 23.5886 10.065C23.2291 9.8143 22.8009 9.68102 22.3626 9.68341H17.8009C17.1394 9.68369 16.4868 9.53067 15.8943 9.23635C15.3018 8.94203 14.7856 8.51442 14.3861 7.98708L11.6374 4.35058C11.3735 4.00102 11.0085 3.74109 10.5919 3.60604C10.1752 3.47098 9.7271 3.46734 9.30831 3.5956C8.88952 3.72386 8.52031 3.97782 8.25076 4.32303C7.9812 4.66825 7.82434 5.08802 7.80144 5.52541L7.00111 21.9334C6.97728 22.4097 7.09296 22.8826 7.33399 23.2941C7.57501 23.7056 7.93089 24.0378 8.35798 24.25C8.78507 24.4622 9.26479 24.5451 9.73833 24.4886C10.2119 24.4321 10.6586 24.2386 11.0238 23.9319Z" fill="#EAFF86"/>
</svg>
