<svg width="28" height="28" viewBox="0 0 28 28" fill="none" xmlns="http://www.w3.org/2000/svg">
<path d="M16.9762 4.06809L4.27472 14.5553C3.93662 14.8341 3.6931 15.2108 3.57757 15.6335C3.46203 16.0563 3.48015 16.5045 3.62943 16.9165C3.77872 17.3286 4.05185 17.6844 4.41136 17.935C4.77086 18.1857 5.19913 18.319 5.63739 18.3166H10.1991C10.8606 18.3163 11.5132 18.4693 12.1057 18.7637C12.6982 19.058 13.2144 19.4856 13.6139 20.0129L16.3626 23.6494C16.6265 23.999 16.9915 24.2589 17.4081 24.394C17.8248 24.529 18.2729 24.5327 18.6917 24.4044C19.1105 24.2761 19.4797 24.0222 19.7492 23.677C20.0188 23.3317 20.1757 22.912 20.1986 22.4746L20.9989 6.06659C21.0227 5.59029 20.907 5.1174 20.666 4.7059C20.425 4.2944 20.0691 3.96218 19.642 3.75C19.2149 3.53782 18.7352 3.4549 18.2617 3.5114C17.7881 3.5679 17.3414 3.76137 16.9762 4.06809Z" fill="#EAFF86"/>
</svg>
