<svg width="28" height="28" viewBox="0 0 28 28" fill="none" xmlns="http://www.w3.org/2000/svg">
<path d="M16.9762 23.9319L4.27472 13.4447C3.93662 13.1659 3.6931 12.7892 3.57757 12.3665C3.46203 11.9437 3.48015 11.4955 3.62943 11.0835C3.77872 10.6714 4.05185 10.3156 4.41136 10.065C4.77086 9.8143 5.19913 9.68102 5.63739 9.68341H10.1991C10.8606 9.68369 11.5132 9.53067 12.1057 9.23635C12.6982 8.94203 13.2144 8.51442 13.6139 7.98708L16.3626 4.35058C16.6265 4.00102 16.9915 3.74109 17.4081 3.60604C17.8248 3.47098 18.2729 3.46734 18.6917 3.5956C19.1105 3.72386 19.4797 3.97782 19.7492 4.32303C20.0188 4.66825 20.1757 5.08802 20.1986 5.52541L20.9989 21.9334C21.0227 22.4097 20.907 22.8826 20.666 23.2941C20.425 23.7056 20.0691 24.0378 19.642 24.25C19.2149 24.4622 18.7352 24.5451 18.2617 24.4886C17.7881 24.4321 17.3414 24.2386 16.9762 23.9319Z" fill="#EAFF86"/>
</svg>
