<svg width="129" height="56" viewBox="0 0 129 56" fill="none" xmlns="http://www.w3.org/2000/svg">
<path d="M23.7545 9.59304C23.8562 9.28805 23.9451 9.02965 24.0214 8.81785C24.1061 8.59758 24.1485 8.39002 24.1485 8.19516C24.1485 7.88169 24.0044 7.64871 23.7164 7.49622C23.5893 7.42844 23.4665 7.36914 23.3479 7.31831C23.2293 7.26747 23.1191 7.20817 23.0175 7.14039C22.9497 7.08956 22.8777 7.00484 22.8014 6.88623C22.7252 6.76763 22.687 6.58971 22.687 6.3525C22.687 5.6239 23.0641 5.16641 23.8181 4.98003C24.5721 4.78517 25.6268 4.68775 26.9824 4.68775C27.9651 4.68775 28.7064 4.75976 29.2063 4.90378C29.7146 5.04781 30.0577 5.24266 30.2356 5.48835C30.422 5.72557 30.5152 5.9882 30.5152 6.27625C30.5152 6.52194 30.4728 6.72103 30.3881 6.87353C30.3119 7.01755 30.189 7.14039 30.0196 7.24206C29.8078 7.36914 29.5536 7.45386 29.2571 7.49622C28.969 7.53858 28.6979 7.66142 28.4438 7.86475C28.1557 8.08502 27.8762 8.47474 27.6051 9.03389C27.3424 9.58457 27.101 10.1183 26.8807 10.6351C25.7539 13.253 24.8305 15.5234 24.1103 17.4466C23.3902 19.3613 22.7548 20.9582 22.2041 22.2375C21.9669 22.7797 21.7212 23.1906 21.4671 23.4702C21.2129 23.7582 20.8147 23.9023 20.2725 23.9023C19.7727 23.9023 19.3872 23.6693 19.1161 23.2033C18.8535 22.7374 18.5358 22.0808 18.163 21.2336C17.7224 20.2169 17.3285 19.302 16.9811 18.4887C16.6423 17.6669 16.278 16.7434 15.8883 15.7183C15.7866 15.4472 15.6934 15.2735 15.6087 15.1973C15.5324 15.121 15.435 15.0829 15.3164 15.0829C15.1046 15.0829 14.9013 15.3625 14.7064 15.9216C14.3591 16.9213 14.0541 17.7855 13.7914 18.5141C13.5373 19.2342 13.3001 19.8908 13.0798 20.4838C12.8595 21.0684 12.6223 21.653 12.3681 22.2375C12.1309 22.7797 11.8852 23.1906 11.6311 23.4702C11.3769 23.7582 10.9787 23.9023 10.4365 23.9023C10.1485 23.9023 9.88584 23.8726 9.64862 23.8133C9.4114 23.754 9.18266 23.5973 8.96239 23.3431C8.74212 23.0974 8.50913 22.6908 8.26345 22.1231C7.36541 20.039 6.48009 17.9846 5.60747 15.9598C4.73485 13.9265 3.8114 11.9186 2.83712 9.93616C2.6931 9.64811 2.51942 9.3177 2.31609 8.94493C2.12124 8.56369 1.91791 8.33071 1.70611 8.24599C1.51973 8.17822 1.35029 8.14433 1.19779 8.14433C1.04529 8.14433 0.880088 8.1062 0.702176 8.02995C0.38024 7.8944 0.219271 7.59365 0.219271 7.12769C0.219271 6.90741 0.270104 6.67443 0.371768 6.42875C0.473432 6.18306 0.672524 5.96278 0.969045 5.76793C1.90944 5.141 3.58266 4.82753 5.98871 4.82753C6.74272 4.82753 7.43743 4.87413 8.07283 4.96732C8.7167 5.05204 9.24196 5.2003 9.64862 5.4121C10.1824 5.68321 10.4492 6.05598 10.4492 6.53041C10.4492 6.80999 10.3942 7.00908 10.284 7.12769C10.2247 7.19546 10.1569 7.26324 10.0807 7.33101C10.0044 7.39032 9.93243 7.45809 9.86466 7.53434C9.73758 7.67837 9.67404 7.90287 9.67404 8.20787C9.67404 8.4112 9.7291 8.63994 9.83924 8.8941C9.94938 9.13979 10.0383 9.35582 10.1061 9.54221C10.2501 9.95734 10.3857 10.3132 10.5128 10.6097C10.6483 10.9062 10.8559 11.3552 11.1355 11.9567C11.2625 12.2363 11.4066 12.5244 11.5675 12.8209C11.7285 13.1174 11.8895 13.2657 12.0504 13.2657C12.186 13.2657 12.2919 13.1894 12.3681 13.0369C12.4529 12.8844 12.5799 12.643 12.7494 12.3126C12.8172 12.1855 12.8849 12.0457 12.9527 11.8932C13.0205 11.7407 13.1052 11.5458 13.2069 11.3086C13.2831 11.1222 13.3467 10.957 13.3975 10.813C13.4568 10.6605 13.4864 10.5377 13.4864 10.4445C13.4864 10.2835 13.389 9.99546 13.1942 9.58033C13.1518 9.48714 13.1052 9.37277 13.0544 9.23722C13.0035 9.09319 12.9442 8.9407 12.8765 8.77973C12.7409 8.44932 12.6435 8.21634 12.5842 8.08079C12.5249 7.93676 12.4401 7.83086 12.33 7.76309C12.2114 7.69531 12.097 7.63177 11.9869 7.57247C11.8852 7.50469 11.7709 7.41573 11.6438 7.3056C11.5421 7.21241 11.4659 7.11074 11.415 7.00061C11.3642 6.882 11.3388 6.71679 11.3388 6.50499C11.3388 6.12375 11.4362 5.8357 11.6311 5.64085C11.8259 5.44599 12.1224 5.28926 12.5206 5.17065C13.029 5.00968 13.6686 4.91225 14.4395 4.87837C15.219 4.84448 16.045 4.82753 16.9176 4.82753C17.5276 4.82753 18.1376 4.85295 18.7476 4.90378C19.3575 4.94614 19.8701 5.04357 20.2852 5.19607C20.5987 5.3062 20.8317 5.45446 20.9842 5.64085C21.1367 5.82723 21.2129 6.01362 21.2129 6.2C21.2129 6.61513 21.1197 6.89047 20.9333 7.02602C20.8317 7.10227 20.7088 7.17005 20.5648 7.22935C20.4293 7.28018 20.3022 7.33525 20.1836 7.39455C20.0565 7.45386 19.9506 7.53858 19.8659 7.64871C19.7896 7.75885 19.7515 7.89864 19.7515 8.06808C19.7515 8.27141 19.7769 8.44508 19.8277 8.58911C19.8786 8.72466 19.9379 8.88563 20.0057 9.07201C20.1412 9.45325 20.2852 9.82179 20.4377 10.1776C20.5902 10.525 20.8105 11.0672 21.0985 11.8042C21.2087 12.0923 21.34 12.3846 21.4925 12.6811C21.645 12.9691 21.8187 13.1132 22.0135 13.1132C22.183 13.1132 22.327 13.02 22.4456 12.8336C22.5642 12.6387 22.704 12.3719 22.865 12.033C22.9582 11.8381 23.081 11.5289 23.2335 11.1053C23.386 10.6732 23.5597 10.1691 23.7545 9.59304ZM30.1548 14.4729C30.1548 13.0073 30.4132 11.6687 30.93 10.4572C31.4468 9.24569 32.1627 8.20363 33.0776 7.33101C34.0011 6.44993 35.0643 5.77216 36.2674 5.29773C37.4788 4.81483 38.7751 4.57337 40.156 4.57337C41.5115 4.57337 42.7442 4.81906 43.854 5.31044C44.9639 5.80182 45.917 6.47958 46.7133 7.34372C47.5182 8.19939 48.1366 9.18638 48.5687 10.3047C49.0008 11.423 49.2168 12.6133 49.2168 13.8756C49.2168 15.2227 48.9711 16.4893 48.4798 17.6753C47.9884 18.853 47.3021 19.895 46.4211 20.8015C45.5484 21.708 44.5276 22.4197 43.3584 22.9365C42.1893 23.4448 40.927 23.6989 39.5714 23.6989C38.1651 23.6989 36.8858 23.466 35.7336 23C34.5814 22.5425 33.586 21.8986 32.7472 21.0684C31.917 20.2297 31.2773 19.2511 30.8283 18.1328C30.3793 17.0145 30.1548 15.7946 30.1548 14.4729ZM40.766 19.7722C41.4268 19.7722 41.9521 19.5307 42.3418 19.0478C42.7315 18.5564 42.9264 17.9634 42.9264 17.2687C42.9264 16.2266 42.812 15.193 42.5832 14.1679C42.363 13.1428 42.058 12.2151 41.6683 11.3849C41.2785 10.5461 40.8295 9.87685 40.3212 9.37701C39.8129 8.86868 39.2707 8.61452 38.6946 8.61452C38.1524 8.61452 37.6737 8.85174 37.2586 9.32617C36.8434 9.79213 36.6359 10.4657 36.6359 11.3467C36.6359 12.3126 36.7418 13.2911 36.9536 14.2823C37.1654 15.2651 37.4577 16.1716 37.8304 17.0018C38.2032 17.8321 38.6395 18.5014 39.1394 19.0097C39.6392 19.518 40.1814 19.7722 40.766 19.7722ZM50.4519 14.4729C50.4519 13.0073 50.7103 11.6687 51.2271 10.4572C51.7439 9.24569 52.4597 8.20363 53.3747 7.33101C54.2982 6.44993 55.3614 5.77216 56.5644 5.29773C57.7759 4.81483 59.0722 4.57337 60.4531 4.57337C61.8086 4.57337 63.0413 4.81906 64.1511 5.31044C65.261 5.80182 66.2141 6.47958 67.0104 7.34372C67.8153 8.19939 68.4337 9.18638 68.8658 10.3047C69.2979 11.423 69.5139 12.6133 69.5139 13.8756C69.5139 15.2227 69.2682 16.4893 68.7768 17.6753C68.2855 18.853 67.5992 19.895 66.7181 20.8015C65.8455 21.708 64.8246 22.4197 63.6555 22.9365C62.4864 23.4448 61.224 23.6989 59.8685 23.6989C58.4622 23.6989 57.1829 23.466 56.0307 23C54.8785 22.5425 53.883 21.8986 53.0443 21.0684C52.2141 20.2297 51.5744 19.2511 51.1254 18.1328C50.6764 17.0145 50.4519 15.7946 50.4519 14.4729ZM61.0631 19.7722C61.7239 19.7722 62.2492 19.5307 62.6389 19.0478C63.0286 18.5564 63.2234 17.9634 63.2234 17.2687C63.2234 16.2266 63.1091 15.193 62.8803 14.1679C62.66 13.1428 62.3551 12.2151 61.9653 11.3849C61.5756 10.5461 61.1266 9.87685 60.6183 9.37701C60.11 8.86868 59.5678 8.61452 58.9917 8.61452C58.4495 8.61452 57.9708 8.85174 57.5557 9.32617C57.1405 9.79213 56.933 10.4657 56.933 11.3467C56.933 12.3126 57.0389 13.2911 57.2507 14.2823C57.4625 15.2651 57.7548 16.1716 58.1275 17.0018C58.5003 17.8321 58.9366 18.5014 59.4364 19.0097C59.9363 19.518 60.4785 19.7722 61.0631 19.7722ZM75.3366 23.5083C74.8791 23.5083 74.375 23.4956 73.8243 23.4702C73.2736 23.4448 72.7484 23.3897 72.2485 23.305C71.7571 23.2287 71.3505 23.1017 71.0285 22.9238C70.5711 22.6781 70.3423 22.2841 70.3423 21.7419C70.3423 21.4539 70.3889 21.2505 70.4821 21.1319C70.5838 21.0048 70.6854 20.8989 70.7871 20.8142C70.9142 20.721 71.0624 20.649 71.2319 20.5982C71.4098 20.5474 71.575 20.4669 71.7275 20.3567C71.8461 20.2635 71.9308 20.1619 71.9816 20.0517C72.0409 19.9331 72.0918 19.7806 72.1341 19.5943C72.1934 19.3147 72.24 18.7852 72.2739 18.0057C72.3163 17.2179 72.3375 16.3834 72.3375 15.5023V11.944C72.3375 10.8342 72.3078 9.9997 72.2485 9.44055C72.1977 8.87292 72.1257 8.47897 72.0325 8.2587C71.9478 8.02995 71.8461 7.87746 71.7275 7.80121C71.6258 7.72496 71.4691 7.65719 71.2573 7.59788C71.0455 7.53858 70.893 7.46657 70.7998 7.38185C70.7235 7.3056 70.6431 7.20393 70.5583 7.07685C70.4821 6.9413 70.444 6.7295 70.444 6.44145C70.444 5.96702 70.6304 5.60272 71.0031 5.34856C71.3759 5.0944 71.808 4.96732 72.2993 4.96732C72.7314 4.96732 73.3245 4.98003 74.0785 5.00545C74.8325 5.03086 75.5314 5.04357 76.1753 5.04357C76.6921 5.04357 77.3317 5.04357 78.0942 5.04357C78.8567 5.0351 79.6192 5.03086 80.3816 5.03086C81.1441 5.02239 81.7753 5.01815 82.2751 5.01815C82.8682 5.01815 83.3468 4.98003 83.7111 4.90378C84.0839 4.81906 84.4186 4.7767 84.7151 4.7767C85.0624 4.7767 85.3928 4.99274 85.7063 5.42481C86.0198 5.85688 86.2782 6.39909 86.4815 7.05144C86.6848 7.69531 86.7865 8.33495 86.7865 8.97035C86.7865 9.50409 86.6721 9.92769 86.4434 10.2411C86.2231 10.5461 85.9012 10.6986 85.4776 10.6986C85.0963 10.6986 84.804 10.5885 84.6007 10.3682C84.3974 10.148 84.1856 9.89803 83.9653 9.61846C83.7281 9.31346 83.4612 9.05083 83.1647 8.83056C82.8766 8.60182 82.5208 8.43661 82.0972 8.33495C81.7075 8.24175 81.2924 8.17398 80.8518 8.13162C80.4198 8.08079 80.0046 8.05537 79.6065 8.05537C79.1913 8.05537 78.8948 8.11468 78.7169 8.23328C78.539 8.35189 78.4288 8.59758 78.3865 8.97035C78.3526 9.3177 78.3229 9.58457 78.2975 9.77095C78.2806 9.95734 78.2679 10.1395 78.2594 10.3174C78.2509 10.4445 78.2382 10.6182 78.2213 10.8384C78.2128 11.0587 78.2086 11.2663 78.2086 11.4611C78.2086 11.7576 78.2255 11.961 78.2594 12.0711C78.3018 12.1812 78.4458 12.2575 78.6915 12.2998C78.8524 12.3253 78.988 12.3464 79.0981 12.3634C79.2167 12.3719 79.3438 12.3761 79.4794 12.3761C79.7251 12.3761 79.9369 12.2998 80.1148 12.1474C80.3012 11.9864 80.4198 11.8 80.4706 11.5882C80.513 11.4272 80.5341 11.262 80.5341 11.0926C80.5426 10.9147 80.568 10.7749 80.6104 10.6732C80.6697 10.5292 80.7756 10.3809 80.9281 10.2284C81.0891 10.0759 81.3432 9.9997 81.6906 9.9997C82.0464 9.9997 82.3387 10.1903 82.5674 10.5716C82.8046 10.9528 82.9825 11.4526 83.1012 12.0711C83.2198 12.6811 83.2791 13.3334 83.2791 14.0281C83.2791 14.7737 83.2325 15.4853 83.1393 16.1631C83.0546 16.8324 82.8936 17.3788 82.6564 17.8024C82.4192 18.226 82.0803 18.4378 81.6397 18.4378C80.9704 18.4378 80.5723 18.1413 80.4452 17.5483C80.4113 17.3958 80.4028 17.184 80.4198 16.9129C80.4367 16.6333 80.4198 16.413 80.3689 16.252C80.2927 16.0064 80.1487 15.82 79.9369 15.6929C79.8183 15.6251 79.653 15.5785 79.4412 15.5531C79.2125 15.5277 78.988 15.515 78.7677 15.515C78.5813 15.515 78.4543 15.5616 78.3865 15.6548C78.3187 15.748 78.2848 15.8708 78.2848 16.0233C78.2848 16.2775 78.2806 16.5104 78.2721 16.7222C78.2636 16.9256 78.2594 17.1713 78.2594 17.4593V18.8318C78.2594 19.2723 78.3145 19.6112 78.4246 19.8484C78.5347 20.0772 78.6745 20.2508 78.844 20.3694C79.0134 20.4965 79.2083 20.5685 79.4285 20.5855C79.6573 20.6024 79.8564 20.6617 80.0258 20.7634C80.1783 20.8481 80.3054 20.9752 80.4071 21.1446C80.5172 21.3056 80.5723 21.5216 80.5723 21.7927C80.5723 22.4705 80.2376 22.9322 79.5683 23.1779C79.204 23.3135 78.6322 23.4024 77.8527 23.4448C77.0818 23.4871 76.2431 23.5083 75.3366 23.5083Z" fill="#FFF9F4"/>
<path d="M78.0791 35.0091C78.1807 34.7041 78.2697 34.4457 78.3459 34.2339C78.4307 34.0136 78.473 33.806 78.473 33.6112C78.473 33.2977 78.329 33.0647 78.041 32.9122C77.9139 32.8445 77.791 32.7852 77.6724 32.7343C77.5538 32.6835 77.4437 32.6242 77.342 32.5564C77.2742 32.5056 77.2022 32.4209 77.126 32.3022C77.0497 32.1836 77.0116 32.0057 77.0116 31.7685C77.0116 31.0399 77.3886 30.5824 78.1426 30.396C78.8966 30.2012 79.9514 30.1038 81.3069 30.1038C82.2897 30.1038 83.031 30.1758 83.5308 30.3198C84.0391 30.4638 84.3823 30.6587 84.5602 30.9044C84.7465 31.1416 84.8397 31.4042 84.8397 31.6923C84.8397 31.938 84.7974 32.137 84.7127 32.2895C84.6364 32.4336 84.5136 32.5564 84.3441 32.6581C84.1323 32.7852 83.8782 32.8699 83.5816 32.9122C83.2936 32.9546 83.0225 33.0774 82.7683 33.2808C82.4803 33.501 82.2007 33.8908 81.9296 34.4499C81.667 35.0006 81.4255 35.5343 81.2052 36.0511C80.0785 38.669 79.155 40.9395 78.4349 42.8626C77.7148 44.7773 77.0794 46.3743 76.5287 47.6535C76.2915 48.1957 76.0458 48.6066 75.7916 48.8862C75.5375 49.1743 75.1393 49.3183 74.5971 49.3183C74.0972 49.3183 73.7118 49.0853 73.4406 48.6193C73.178 48.1534 72.8603 47.4968 72.4875 46.6496C72.047 45.633 71.6531 44.718 71.3057 43.9047C70.9668 43.0829 70.6025 42.1594 70.2128 41.1343C70.1111 40.8632 70.018 40.6895 69.9332 40.6133C69.857 40.537 69.7596 40.4989 69.641 40.4989C69.4292 40.4989 69.2258 40.7785 69.031 41.3376C68.6836 42.3373 68.3786 43.2015 68.116 43.9301C67.8618 44.6502 67.6246 45.3068 67.4043 45.8998C67.1841 46.4844 66.9469 47.069 66.6927 47.6535C66.4555 48.1957 66.2098 48.6066 65.9556 48.8862C65.7015 49.1743 65.3033 49.3183 64.7611 49.3183C64.473 49.3183 64.2104 49.2886 63.9732 49.2293C63.736 49.17 63.5072 49.0133 63.2869 48.7591C63.0667 48.5134 62.8337 48.1068 62.588 47.5392C61.69 45.455 60.8046 43.4006 59.932 41.3758C59.0594 39.3425 58.136 37.3346 57.1617 35.3522C57.0177 35.0641 56.844 34.7337 56.6406 34.3609C56.4458 33.9797 56.2425 33.7467 56.0307 33.662C55.8443 33.5942 55.6748 33.5603 55.5223 33.5603C55.3698 33.5603 55.2046 33.5222 55.0267 33.446C54.7048 33.3104 54.5438 33.0097 54.5438 32.5437C54.5438 32.3234 54.5947 32.0904 54.6963 31.8448C54.798 31.5991 54.9971 31.3788 55.2936 31.1839C56.234 30.557 57.9072 30.2435 60.3133 30.2435C61.0673 30.2435 61.762 30.2901 62.3974 30.3833C63.0413 30.4681 63.5665 30.6163 63.9732 30.8281C64.5069 31.0992 64.7738 31.472 64.7738 31.9464C64.7738 32.226 64.7187 32.4251 64.6086 32.5437C64.5493 32.6115 64.4815 32.6793 64.4052 32.747C64.329 32.8063 64.257 32.8741 64.1892 32.9504C64.0621 33.0944 63.9986 33.3189 63.9986 33.6239C63.9986 33.8272 64.0537 34.056 64.1638 34.3101C64.2739 34.5558 64.3629 34.7718 64.4307 34.9582C64.5747 35.3734 64.7102 35.7292 64.8373 36.0257C64.9729 36.3222 65.1804 36.7712 65.46 37.3727C65.5871 37.6523 65.7311 37.9404 65.8921 38.2369C66.0531 38.5334 66.214 38.6817 66.375 38.6817C66.5105 38.6817 66.6164 38.6054 66.6927 38.4529C66.7774 38.3004 66.9045 38.059 67.0739 37.7286C67.1417 37.6015 67.2095 37.4617 67.2773 37.3092C67.345 37.1567 67.4298 36.9619 67.5314 36.7246C67.6077 36.5383 67.6712 36.3731 67.722 36.229C67.7813 36.0765 67.811 35.9537 67.811 35.8605C67.811 35.6995 67.7136 35.4115 67.5187 34.9963C67.4764 34.9032 67.4298 34.7888 67.3789 34.6532C67.3281 34.5092 67.2688 34.3567 67.201 34.1957C67.0655 33.8653 66.968 33.6324 66.9087 33.4968C66.8494 33.3528 66.7647 33.2469 66.6546 33.1791C66.536 33.1113 66.4216 33.0478 66.3115 32.9885C66.2098 32.9207 66.0954 32.8318 65.9683 32.7216C65.8667 32.6284 65.7904 32.5268 65.7396 32.4166C65.6888 32.298 65.6633 32.1328 65.6633 31.921C65.6633 31.5398 65.7608 31.2517 65.9556 31.0569C66.1505 30.862 66.447 30.7053 66.8452 30.5867C67.3535 30.4257 67.9931 30.3283 68.7641 30.2944C69.5435 30.2605 70.3695 30.2435 71.2422 30.2435C71.8521 30.2435 72.4621 30.269 73.0721 30.3198C73.6821 30.3622 74.1947 30.4596 74.6098 30.6121C74.9233 30.7222 75.1562 30.8705 75.3087 31.0569C75.4612 31.2432 75.5375 31.4296 75.5375 31.616C75.5375 32.0311 75.4443 32.3065 75.2579 32.442C75.1562 32.5183 75.0334 32.5861 74.8894 32.6454C74.7538 32.6962 74.6267 32.7513 74.5081 32.8106C74.381 32.8699 74.2751 32.9546 74.1904 33.0647C74.1142 33.1749 74.076 33.3147 74.076 33.4841C74.076 33.6874 74.1015 33.8611 74.1523 34.0051C74.2031 34.1407 74.2624 34.3016 74.3302 34.488C74.4658 34.8693 74.6098 35.2378 74.7623 35.5936C74.9148 35.941 75.1351 36.4832 75.4231 37.2203C75.5332 37.5083 75.6646 37.8006 75.817 38.0971C75.9695 38.3852 76.1432 38.5292 76.3381 38.5292C76.5075 38.5292 76.6515 38.436 76.7701 38.2496C76.8888 38.0547 77.0285 37.7879 77.1895 37.449C77.2827 37.2541 77.4056 36.9449 77.558 36.5213C77.7105 36.0892 77.8842 35.5852 78.0791 35.0091ZM86.7114 40.6514V37.3473C86.7114 36.0935 86.6817 35.1488 86.6224 34.5134C86.5716 33.8696 86.4488 33.4544 86.2539 33.2681C86.0929 33.1071 85.9193 32.9842 85.7329 32.8995C85.555 32.8148 85.4152 32.7216 85.3135 32.6199C85.2034 32.5098 85.1271 32.3785 85.0848 32.226C85.0509 32.065 85.0339 31.921 85.0339 31.7939C85.0339 31.455 85.1229 31.1924 85.3008 31.006C85.4872 30.8112 85.7244 30.6502 86.0125 30.5231C86.3852 30.3622 86.8554 30.2393 87.423 30.1546C87.9991 30.0614 88.7362 30.0148 89.6342 30.0148C90.4391 30.0148 91.1719 30.0529 91.8327 30.1292C92.502 30.2054 92.9976 30.3071 93.3196 30.4342C93.7093 30.5867 94.0354 30.7646 94.2981 30.9679C94.5607 31.1712 94.692 31.4974 94.692 31.9464C94.692 32.1159 94.6624 32.298 94.6031 32.4929C94.5522 32.6877 94.4379 32.8317 94.26 32.9249C94.0482 33.0351 93.8787 33.1113 93.7516 33.1537C93.633 33.196 93.4805 33.2892 93.2941 33.4333C93.04 33.6196 92.8621 34.0305 92.7604 34.6659C92.6587 35.2929 92.6079 36.2121 92.6079 37.4236V40.4862C92.6079 40.9352 92.6164 41.4647 92.6333 42.0747C92.6503 42.6762 92.6799 43.2439 92.7223 43.7776C92.7731 44.3113 92.8451 44.701 92.9383 44.9467C92.9976 45.1077 93.0569 45.239 93.1162 45.3407C93.1755 45.4423 93.2603 45.5186 93.3704 45.5694C93.5059 45.6372 93.6246 45.6838 93.7262 45.7092C93.8364 45.7346 93.9507 45.777 94.0693 45.8363C94.5099 46.0481 94.7302 46.4378 94.7302 47.0054C94.7302 47.4544 94.5692 47.7721 94.2472 47.9585C93.9338 48.1364 93.6288 48.2635 93.3323 48.3398C92.9171 48.4414 92.3792 48.5389 91.7184 48.6321C91.066 48.7252 90.3544 48.7718 89.5834 48.7718C88.8463 48.7718 88.1643 48.7252 87.5374 48.6321C86.9105 48.5389 86.3513 48.4118 85.86 48.2508C85.538 48.1407 85.2796 47.9797 85.0848 47.7679C84.8899 47.5476 84.7925 47.3019 84.7925 47.0308C84.7925 46.5988 84.8899 46.2768 85.0848 46.065C85.2118 45.921 85.3474 45.8193 85.4914 45.76C85.6439 45.7007 85.7583 45.6414 85.8345 45.5821C85.9277 45.5059 86.0252 45.4254 86.1268 45.3407C86.2285 45.2475 86.3132 45.1204 86.381 44.9594C86.5335 44.5867 86.6267 44.0826 86.6606 43.4472C86.6944 42.8118 86.7114 41.8799 86.7114 40.6514ZM98.3893 43.193C98.7705 43.8877 99.2958 44.3876 99.9651 44.6926C100.643 44.9976 101.266 45.1501 101.833 45.1501C103.129 45.1501 103.777 44.8196 103.777 44.1588C103.777 43.9216 103.714 43.7225 103.587 43.5616C103.468 43.3921 103.223 43.2311 102.85 43.0786C102.485 42.9177 101.939 42.7313 101.21 42.5195C100.092 42.1976 99.0967 41.7655 98.2241 41.2233C97.3599 40.6726 96.6779 39.9864 96.1781 39.1646C95.6867 38.3343 95.441 37.3389 95.441 36.1782C95.441 35.1954 95.6401 34.3271 96.0383 33.5731C96.4365 32.819 96.9744 32.1879 97.6522 31.6796C98.33 31.1628 99.0967 30.7773 99.9524 30.5231C100.808 30.2605 101.693 30.1292 102.608 30.1292C103.303 30.1292 103.824 30.1631 104.171 30.2308C104.519 30.2901 104.777 30.3537 104.947 30.4215C105.125 30.4808 105.294 30.5104 105.455 30.5104C105.692 30.5104 105.912 30.4469 106.116 30.3198C106.328 30.1842 106.573 30.1165 106.853 30.1165C107.183 30.1165 107.526 30.2563 107.882 30.5358C108.238 30.8069 108.564 31.1628 108.861 31.6033C109.166 32.0354 109.411 32.5013 109.598 33.0012C109.784 33.4926 109.877 33.9543 109.877 34.3864C109.877 34.9116 109.704 35.3522 109.356 35.708C109.009 36.0554 108.628 36.229 108.213 36.229C107.679 36.229 107.2 36.0426 106.777 35.6699C106.624 35.5428 106.467 35.403 106.306 35.2505C106.145 35.0895 105.984 34.9328 105.823 34.7803C105.527 34.5092 105.188 34.2762 104.807 34.0814C104.434 33.8865 103.998 33.7891 103.498 33.7891C103.074 33.7891 102.731 33.8823 102.469 34.0687C102.206 34.255 102.075 34.5092 102.075 34.8311C102.075 35.1616 102.206 35.4199 102.469 35.6063C102.74 35.7927 103.095 35.9452 103.536 36.0638C103.977 36.1824 104.455 36.3095 104.972 36.4451C105.972 36.7077 106.887 37.0508 107.717 37.4744C108.556 37.898 109.225 38.4656 109.725 39.1773C110.233 39.8889 110.487 40.8166 110.487 41.9603C110.487 42.9685 110.271 43.8962 109.839 44.7434C109.416 45.5821 108.827 46.3107 108.073 46.9292C107.327 47.5392 106.463 48.0136 105.48 48.3525C104.506 48.6914 103.464 48.8608 102.354 48.8608C101.024 48.8608 99.838 48.6998 98.7959 48.3779C97.7539 48.056 96.9787 47.6408 96.4704 47.1325C96.3263 46.9885 96.1654 46.6962 95.9875 46.2557C95.8095 45.8151 95.6528 45.311 95.5173 44.7434C95.3902 44.1673 95.3266 43.6166 95.3266 43.0914C95.3266 42.1086 95.7079 41.6172 96.4704 41.6172C96.7923 41.6172 97.0761 41.7104 97.3218 41.8968C97.576 42.0832 97.792 42.2992 97.9699 42.5449C98.1478 42.7906 98.2876 43.0066 98.3893 43.193ZM115.373 48.7083C114.831 48.7083 114.293 48.7168 113.759 48.7337C113.234 48.7591 112.7 48.7718 112.158 48.7718C111.768 48.7718 111.501 48.649 111.357 48.4033C111.213 48.1491 111.141 47.8823 111.141 47.6027C111.141 47.2892 111.192 47.0478 111.293 46.8783C111.404 46.7004 111.603 46.5818 111.891 46.5225C112.264 46.4378 112.53 46.2218 112.691 45.8744C112.768 45.705 112.857 45.4339 112.958 45.0611C113.06 44.6883 113.128 44.2054 113.162 43.6124C113.195 42.9177 113.225 42.3289 113.25 41.846C113.276 41.3546 113.293 40.842 113.301 40.3083C113.31 39.7746 113.314 39.0883 113.314 38.2496C113.314 37.4363 113.301 36.7839 113.276 36.2926C113.25 35.8012 113.217 35.3988 113.174 35.0853C113.132 34.7634 113.085 34.4626 113.034 34.183C112.984 33.878 112.899 33.6366 112.78 33.4587C112.67 33.2723 112.543 33.1283 112.399 33.0266C112.247 32.9249 112.081 32.8529 111.903 32.8106C111.726 32.7682 111.573 32.7004 111.446 32.6072C111.336 32.531 111.247 32.4336 111.179 32.315C111.12 32.1879 111.09 32.0184 111.09 31.8066C111.09 31.2051 111.289 30.7858 111.687 30.5485C112.086 30.3113 112.785 30.1927 113.784 30.1927C114.216 30.1927 114.67 30.2012 115.144 30.2181C115.627 30.2351 116.063 30.2435 116.453 30.2435H122.998C123.455 30.2435 123.798 30.2266 124.027 30.1927C124.264 30.1588 124.446 30.1207 124.573 30.0783C124.709 30.036 124.84 29.9979 124.967 29.964C125.094 29.9301 125.281 29.9131 125.526 29.9131C125.925 29.9131 126.272 30.1038 126.568 30.485C126.865 30.8662 127.098 31.383 127.267 32.0354C127.437 32.6793 127.522 33.4036 127.522 34.2085C127.522 34.6744 127.382 35.0429 127.102 35.314C126.831 35.5767 126.48 35.708 126.047 35.708C125.734 35.708 125.505 35.636 125.361 35.492C125.226 35.3395 125.031 35.0429 124.777 34.6024C124.59 34.2635 124.362 34.0009 124.09 33.8145C123.828 33.6196 123.464 33.4629 122.998 33.3443C122.676 33.2681 122.366 33.2215 122.07 33.2045C121.773 33.1791 121.426 33.1664 121.028 33.1664C120.231 33.1664 119.706 33.2426 119.452 33.3951C119.206 33.5476 119.054 33.7128 118.995 33.8908C118.935 34.0687 118.897 34.4372 118.88 34.9963C118.872 35.5555 118.867 36.2248 118.867 37.0042C118.867 37.3007 118.88 37.5168 118.906 37.6523C118.939 37.7879 119.045 37.8811 119.223 37.9319C119.41 37.9827 119.592 38.0124 119.77 38.0209C119.956 38.0293 120.159 38.0336 120.38 38.0336C120.659 38.0336 120.88 37.9488 121.041 37.7794C121.201 37.61 121.29 37.4066 121.307 37.1694C121.324 36.9153 121.341 36.7119 121.358 36.5594C121.384 36.3985 121.413 36.2375 121.447 36.0765C121.49 35.8647 121.587 35.6699 121.739 35.492C121.892 35.3056 122.15 35.2124 122.515 35.2124C123.065 35.2124 123.468 35.5428 123.722 36.2036C123.985 36.856 124.116 37.8938 124.116 39.3171C124.116 40.8759 123.942 41.9519 123.595 42.5449C123.256 43.138 122.82 43.4345 122.286 43.4345C121.718 43.4345 121.434 42.9897 121.434 42.1001C121.434 41.8036 121.358 41.5113 121.206 41.2233C121.062 40.9268 120.706 40.7785 120.138 40.7785C119.791 40.7785 119.549 40.8081 119.414 40.8675C119.278 40.9183 119.181 41.0199 119.122 41.1724C119.054 41.3419 119.02 41.5918 119.02 41.9222C119.02 42.2526 119.02 42.528 119.02 42.7482C119.02 43.138 119.037 43.5107 119.071 43.8665C119.113 44.2224 119.189 44.7053 119.3 45.3153C119.325 45.4508 119.363 45.5525 119.414 45.6203C119.465 45.6796 119.575 45.7262 119.744 45.76C119.99 45.8109 120.261 45.8448 120.558 45.8617C120.854 45.8702 121.18 45.8744 121.536 45.8744C122.078 45.8744 122.493 45.8575 122.782 45.8236C123.078 45.7812 123.362 45.7304 123.633 45.6711C123.879 45.6118 124.167 45.4508 124.497 45.1882C124.828 44.9255 125.107 44.6333 125.336 44.3113C125.556 43.9979 125.721 43.6971 125.831 43.4091C125.942 43.1125 126.081 42.8711 126.251 42.6847C126.429 42.4898 126.708 42.3924 127.09 42.3924C127.649 42.3924 128.009 42.5746 128.17 42.9389C128.339 43.3032 128.424 43.7352 128.424 44.2351C128.424 44.6587 128.348 45.1416 128.195 45.6838C128.051 46.226 127.86 46.7513 127.623 47.2596C127.395 47.7594 127.153 48.1746 126.899 48.505C126.645 48.8354 126.412 49.0006 126.2 49.0006C125.92 49.0006 125.471 48.9455 124.853 48.8354C124.243 48.7337 123.497 48.6829 122.616 48.6829C121.871 48.6829 121.155 48.6871 120.469 48.6956C119.791 48.7041 119.181 48.7083 118.639 48.7083H115.373Z" fill="#FFF9F4"/>
<g clip-path="url(#clip0_370_12891)">
<path d="M40.6658 38.1663C39.5644 40.1996 38.5902 42.2329 37.7006 44.3509C36.9381 46.2571 35.9638 48.3751 35.7944 50.4084C35.4555 54.3902 39.7339 56.0846 43.1227 55.9999C46.808 55.9152 50.0697 53.9243 51.9336 50.7896C54.221 46.9772 54.221 42.4447 53.8821 38.1663C53.7551 36.5566 51.2135 36.5143 51.3405 38.1663C51.8065 43.7155 51.51 51.6792 44.7324 53.2465C43.3768 53.543 41.9366 53.543 40.6234 53.1194C39.4797 52.7382 38.3784 52.1875 38.336 50.7473C38.2936 50.0271 38.7596 48.9258 38.9714 48.248C39.988 45.1981 41.3436 42.2329 42.8685 39.4371C43.631 37.9969 41.4283 36.7261 40.6658 38.1663Z" fill="#FFF9F4"/>
<path d="M27.2372 31.9819C28.2114 34.3117 30.5836 36.1755 32.6169 37.531C34.7349 38.9289 37.1918 39.8609 39.7757 39.9456C45.3673 40.0726 48.7561 36.0484 50.3658 31.0923C50.9588 29.1861 51.4671 26.7292 49.7304 25.2466C48.3748 24.0605 45.2826 23.5946 43.9694 25.0772C42.6139 26.6021 43.2069 29.1438 43.7999 30.8382C44.6048 33.168 45.9603 35.286 47.8242 36.8956C52.1872 40.6657 58.7531 41.0046 63.3703 37.531C64.6411 36.5568 63.4127 34.354 62.0995 35.3283C58.6683 37.9123 53.924 38.1664 50.3234 35.6248C48.629 34.4388 47.2735 32.6596 46.4686 30.7111C46.1298 29.8639 45.8332 28.8896 45.7485 28C45.7062 27.3646 45.5791 27.1105 46.1721 26.8563C47.1888 26.3903 48.2901 27.2376 48.4172 28.3389C48.5866 30.0757 47.2311 32.5749 46.3416 33.9304C45.0284 36.0061 42.9527 37.2769 40.4535 37.3616C36.4293 37.5734 31.0496 34.4388 29.4399 30.6687C28.7621 29.1861 26.6018 30.4993 27.2372 31.9819Z" fill="#FFF9F4"/>
<path d="M46.0874 36.2602C46.2145 39.5643 45.4944 42.6566 43.927 45.5795C43.1646 47.0197 45.3249 48.2905 46.1298 46.8503C47.9089 43.5462 48.7561 39.9879 48.629 36.2602C48.5866 34.6506 46.045 34.6506 46.0874 36.2602Z" fill="#FFF9F4"/>
</g>
<defs>
<clipPath id="clip0_370_12891">
<rect width="36.7685" height="31.8548" fill="white" transform="translate(27.1104 24.1453)"/>
</clipPath>
</defs>
</svg>
