<svg width="148" height="64" viewBox="0 0 148 64" fill="none" xmlns="http://www.w3.org/2000/svg">
<path d="M26.9337 10.6778C27.0499 10.3292 27.1516 10.0339 27.2387 9.79183C27.3356 9.54009 27.384 9.30287 27.384 9.08018C27.384 8.72194 27.2194 8.45567 26.8902 8.28139C26.7449 8.20393 26.6045 8.13616 26.469 8.07806C26.3334 8.01997 26.2076 7.95219 26.0914 7.87474C26.0139 7.81664 25.9316 7.71982 25.8445 7.58427C25.7573 7.44871 25.7138 7.24539 25.7138 6.97428C25.7138 6.1416 26.1446 5.61876 27.0064 5.40575C27.8681 5.18306 29.0735 5.07171 30.6227 5.07171C31.7458 5.07171 32.593 5.15401 33.1643 5.31861C33.7452 5.48321 34.1374 5.7059 34.3407 5.98669C34.5537 6.25779 34.6602 6.55794 34.6602 6.88714C34.6602 7.16793 34.6118 7.39546 34.515 7.56974C34.4278 7.73434 34.2874 7.87473 34.0938 7.99092C33.8517 8.13616 33.5613 8.23298 33.2224 8.28139C32.8932 8.3298 32.5834 8.4702 32.2929 8.70257C31.9637 8.95431 31.6442 9.3997 31.3343 10.0387C31.0342 10.6681 30.7582 11.2781 30.5065 11.8687C29.2188 14.8605 28.1634 17.4554 27.3404 19.6533C26.5174 21.8415 25.7912 23.6666 25.1619 25.1286C24.8908 25.7483 24.61 26.2179 24.3195 26.5374C24.029 26.8666 23.574 27.0312 22.9543 27.0312C22.3831 27.0312 21.9425 26.7649 21.6327 26.2324C21.3325 25.6998 20.9694 24.9495 20.5434 23.9812C20.0399 22.8194 19.5897 21.7737 19.1927 20.8442C18.8054 19.905 18.3891 18.8496 17.9437 17.6781C17.8275 17.3682 17.721 17.1697 17.6242 17.0826C17.5371 16.9955 17.4257 16.9519 17.2902 16.9519C17.0481 16.9519 16.8157 17.2714 16.593 17.9104C16.1961 19.0529 15.8475 20.0405 15.5474 20.8732C15.2569 21.6962 14.9858 22.4466 14.734 23.1244C14.4823 23.7924 14.2112 24.4605 13.9207 25.1286C13.6496 25.7483 13.3688 26.2179 13.0784 26.5374C12.7879 26.8666 12.3328 27.0312 11.7132 27.0312C11.384 27.0312 11.0838 26.9973 10.8127 26.9295C10.5416 26.8617 10.2802 26.6826 10.0284 26.3921C9.7767 26.1113 9.51044 25.6466 9.22965 24.9979C8.20333 22.616 7.19153 20.2681 6.19425 17.954C5.19698 15.6303 4.14161 13.3356 3.02814 11.0699C2.86354 10.7407 2.66506 10.3631 2.43268 9.93706C2.20999 9.50136 1.97761 9.2351 1.73555 9.13828C1.52254 9.06082 1.3289 9.02209 1.15462 9.02209C0.980335 9.02209 0.79153 8.97852 0.588202 8.89138C0.220274 8.73646 0.0363108 8.39274 0.0363108 7.86021C0.0363108 7.60847 0.0944046 7.34221 0.210592 7.06142C0.32678 6.78064 0.554314 6.5289 0.893194 6.3062C1.96793 5.58971 3.88018 5.23147 6.62996 5.23147C7.49168 5.23147 8.28563 5.28472 9.0118 5.39123C9.74766 5.48805 10.348 5.65749 10.8127 5.89955C11.4227 6.20938 11.7277 6.6354 11.7277 7.17761C11.7277 7.49713 11.6648 7.72466 11.5389 7.86021C11.4711 7.93767 11.3936 8.01513 11.3065 8.09259C11.2194 8.16036 11.1371 8.23782 11.0596 8.32496C10.9144 8.48956 10.8418 8.74614 10.8418 9.0947C10.8418 9.32708 10.9047 9.5885 11.0306 9.87897C11.1564 10.1598 11.2581 10.4067 11.3356 10.6197C11.5002 11.0941 11.6551 11.5008 11.8003 11.8396C11.9552 12.1785 12.1924 12.6917 12.512 13.3791C12.6572 13.6986 12.8218 14.0278 13.0058 14.3667C13.1897 14.7056 13.3737 14.875 13.5576 14.875C13.7126 14.875 13.8336 14.7879 13.9207 14.6136C14.0176 14.4393 14.1628 14.1634 14.3564 13.7858C14.4339 13.6405 14.5113 13.4808 14.5888 13.3065C14.6663 13.1322 14.7631 12.9095 14.8793 12.6384C14.9664 12.4254 15.039 12.2366 15.0971 12.072C15.1649 11.8977 15.1988 11.7573 15.1988 11.6508C15.1988 11.4669 15.0874 11.1377 14.8648 10.6632C14.8163 10.5567 14.7631 10.426 14.705 10.2711C14.6469 10.1065 14.5791 9.93222 14.5017 9.74826C14.3467 9.37065 14.2354 9.10439 14.1676 8.94947C14.0999 8.78487 14.003 8.66384 13.8772 8.58638C13.7416 8.50893 13.6109 8.43631 13.485 8.36853C13.3688 8.29107 13.2381 8.18941 13.0929 8.06354C12.9767 7.95703 12.8896 7.84085 12.8315 7.71498C12.7734 7.57943 12.7443 7.39062 12.7443 7.14856C12.7443 6.71286 12.8557 6.38366 13.0784 6.16097C13.3011 5.93828 13.6399 5.75915 14.095 5.6236C14.6759 5.43964 15.407 5.32829 16.2881 5.28956C17.1788 5.25083 18.1228 5.23147 19.1201 5.23147C19.8172 5.23147 20.5144 5.26051 21.2115 5.31861C21.9086 5.36702 22.4944 5.47837 22.9688 5.65265C23.3271 5.77852 23.5933 5.94796 23.7676 6.16097C23.9419 6.37398 24.029 6.58699 24.029 6.8C24.029 7.27443 23.9225 7.58911 23.7095 7.74402C23.5933 7.83116 23.453 7.90862 23.2884 7.9764C23.1334 8.03449 22.9882 8.09743 22.8527 8.1652C22.7074 8.23298 22.5864 8.3298 22.4896 8.45567C22.4024 8.58154 22.3589 8.7413 22.3589 8.93495C22.3589 9.16732 22.3879 9.36581 22.446 9.53041C22.5041 9.68533 22.5719 9.86929 22.6493 10.0823C22.8042 10.518 22.9688 10.9392 23.1431 11.3458C23.3174 11.7428 23.5691 12.3625 23.8983 13.2048C24.0242 13.534 24.1743 13.8681 24.3486 14.207C24.5228 14.5362 24.7213 14.7008 24.944 14.7008C25.1377 14.7008 25.3023 14.5943 25.4378 14.3812C25.5734 14.1585 25.7331 13.8536 25.9171 13.4663C26.0236 13.2436 26.164 12.8902 26.3383 12.4061C26.5126 11.9123 26.711 11.3362 26.9337 10.6778ZM34.2483 16.2548C34.2483 14.5797 34.5436 13.0499 35.1343 11.6654C35.7249 10.2808 36.543 9.08986 37.5887 8.09259C38.6441 7.08563 39.8592 6.31104 41.2341 5.76884C42.6187 5.21694 44.1001 4.941 45.6783 4.941C47.2275 4.941 48.6362 5.22178 49.9046 5.78336C51.173 6.34493 52.2623 7.11951 53.1724 8.10711C54.0922 9.08502 54.799 10.213 55.2928 11.4911C55.7866 12.7691 56.0335 14.1295 56.0335 15.5722C56.0335 17.1116 55.7527 18.5592 55.1912 19.9147C54.6296 21.2605 53.8453 22.4514 52.8384 23.4874C51.8411 24.5234 50.6744 25.3368 49.3382 25.9274C48.002 26.5083 46.5594 26.7988 45.0102 26.7988C43.403 26.7988 41.9409 26.5325 40.6241 26C39.3073 25.4772 38.1697 24.7413 37.2111 23.7924C36.2623 22.8339 35.5312 21.7156 35.0181 20.4375C34.5049 19.1595 34.2483 17.7652 34.2483 16.2548ZM46.3754 22.311C47.1306 22.311 47.7309 22.0351 48.1763 21.4832C48.6217 20.9216 48.8444 20.2439 48.8444 19.4499C48.8444 18.259 48.7137 17.0778 48.4523 15.9062C48.2005 14.7346 47.852 13.6744 47.4066 12.7256C46.9612 11.767 46.448 11.0021 45.8671 10.4309C45.2862 9.84992 44.6665 9.55945 44.0081 9.55945C43.3884 9.55945 42.8414 9.83056 42.3669 10.3728C41.8925 10.9053 41.6553 11.675 41.6553 12.682C41.6553 13.7858 41.7763 14.9041 42.0184 16.0369C42.2604 17.1601 42.5945 18.1961 43.0205 19.1449C43.4465 20.0938 43.9452 20.8587 44.5164 21.4396C45.0877 22.0206 45.7073 22.311 46.3754 22.311ZM57.445 16.2548C57.445 14.5797 57.7403 13.0499 58.3309 11.6654C58.9216 10.2808 59.7397 9.08986 60.7854 8.09259C61.8408 7.08563 63.0559 6.31104 64.4308 5.76884C65.8154 5.21694 67.2968 4.941 68.875 4.941C70.4241 4.941 71.8329 5.22178 73.1013 5.78336C74.3697 6.34493 75.4589 7.11951 76.3691 8.10711C77.2889 9.08502 77.9957 10.213 78.4895 11.4911C78.9833 12.7691 79.2302 14.1295 79.2302 15.5722C79.2302 17.1116 78.9494 18.5592 78.3878 19.9147C77.8263 21.2605 77.042 22.4514 76.035 23.4874C75.0377 24.5234 73.871 25.3368 72.5349 25.9274C71.1987 26.5083 69.7561 26.7988 68.2069 26.7988C66.5996 26.7988 65.1376 26.5325 63.8208 26C62.504 25.4772 61.3663 24.7413 60.4078 23.7924C59.4589 22.8339 58.7279 21.7156 58.2148 20.4375C57.7016 19.1595 57.445 17.7652 57.445 16.2548ZM69.5721 22.311C70.3273 22.311 70.9276 22.0351 71.373 21.4832C71.8184 20.9216 72.0411 20.2439 72.0411 19.4499C72.0411 18.259 71.9104 17.0778 71.6489 15.9062C71.3972 14.7346 71.0486 13.6744 70.6033 12.7256C70.1579 11.767 69.6447 11.0021 69.0638 10.4309C68.4828 9.84992 67.8632 9.55945 67.2048 9.55945C66.5851 9.55945 66.0381 9.83056 65.5636 10.3728C65.0892 10.9053 64.852 11.675 64.852 12.682C64.852 13.7858 64.973 14.9041 65.2151 16.0369C65.4571 17.1601 65.7912 18.1961 66.2172 19.1449C66.6432 20.0938 67.1418 20.8587 67.7131 21.4396C68.2843 22.0206 68.904 22.311 69.5721 22.311ZM85.8846 26.5809C85.3618 26.5809 84.7857 26.5664 84.1563 26.5374C83.527 26.5083 82.9267 26.4454 82.3554 26.3486C81.7939 26.2614 81.3291 26.1162 80.9612 25.9129C80.4383 25.6321 80.1769 25.1818 80.1769 24.5622C80.1769 24.233 80.2302 24.0006 80.3367 23.8651C80.4529 23.7198 80.5691 23.5988 80.6852 23.502C80.8305 23.3955 80.9999 23.3132 81.1936 23.2551C81.3969 23.197 81.5857 23.105 81.76 22.9791C81.8955 22.8726 81.9924 22.7564 82.0504 22.6306C82.1182 22.495 82.1763 22.3207 82.2247 22.1077C82.2925 21.7882 82.3458 21.1831 82.3845 20.2923C82.4329 19.3918 82.4571 18.4381 82.4571 17.4312V13.3646C82.4571 12.0962 82.4232 11.1425 82.3554 10.5035C82.2973 9.85477 82.215 9.40454 82.1085 9.1528C82.0117 8.89138 81.8955 8.71709 81.76 8.62995C81.6438 8.54281 81.4647 8.46536 81.2226 8.39758C80.9806 8.3298 80.8063 8.2475 80.6998 8.15068C80.6126 8.06354 80.5206 7.94735 80.4238 7.80212C80.3367 7.6472 80.2931 7.40514 80.2931 7.07594C80.2931 6.53374 80.5061 6.1174 80.9321 5.82693C81.3582 5.53646 81.852 5.39123 82.4135 5.39123C82.9073 5.39123 83.5851 5.40575 84.4468 5.4348C85.3085 5.46384 86.1073 5.47837 86.8432 5.47837C87.4338 5.47837 88.1648 5.47837 89.0362 5.47837C89.9076 5.46868 90.779 5.46384 91.6504 5.46384C92.5219 5.45416 93.2432 5.44932 93.8144 5.44932C94.4922 5.44932 95.0393 5.40575 95.4556 5.31861C95.8816 5.22179 96.2641 5.17337 96.6029 5.17337C96.9999 5.17337 97.3775 5.42027 97.7358 5.91407C98.094 6.40787 98.3893 7.02753 98.6217 7.77307C98.8541 8.50893 98.9703 9.23994 98.9703 9.96611C98.9703 10.5761 98.8396 11.0602 98.5781 11.4185C98.3264 11.767 97.9585 11.9413 97.4744 11.9413C97.0386 11.9413 96.7046 11.8154 96.4722 11.5637C96.2399 11.312 95.9978 11.0263 95.7461 10.7068C95.475 10.3582 95.17 10.0581 94.8311 9.80635C94.5019 9.54493 94.0952 9.35613 93.6111 9.23994C93.1657 9.13343 92.6913 9.05598 92.1878 9.00756C91.694 8.94947 91.2196 8.92042 90.7645 8.92042C90.2901 8.92042 89.9512 8.9882 89.7479 9.12375C89.5445 9.2593 89.4187 9.54009 89.3703 9.96611C89.3315 10.3631 89.2976 10.6681 89.2686 10.8811C89.2492 11.0941 89.2347 11.3023 89.225 11.5056C89.2154 11.6508 89.2008 11.8493 89.1815 12.1011C89.1718 12.3528 89.1669 12.59 89.1669 12.8127C89.1669 13.1516 89.1863 13.384 89.225 13.5098C89.2734 13.6357 89.438 13.7228 89.7188 13.7713C89.9028 13.8003 90.0577 13.8245 90.1836 13.8439C90.3191 13.8536 90.4644 13.8584 90.6193 13.8584C90.9001 13.8584 91.1421 13.7713 91.3455 13.597C91.5585 13.413 91.694 13.2 91.7521 12.9579C91.8005 12.774 91.8247 12.5852 91.8247 12.3915C91.8344 12.1882 91.8635 12.0284 91.9119 11.9123C91.9796 11.7477 92.1007 11.5782 92.275 11.4039C92.4589 11.2297 92.7494 11.1425 93.1464 11.1425C93.553 11.1425 93.8871 11.3604 94.1485 11.7961C94.4196 12.2318 94.6229 12.803 94.7585 13.5098C94.894 14.207 94.9618 14.9525 94.9618 15.7464C94.9618 16.5985 94.9085 17.4118 94.802 18.1864C94.7052 18.9513 94.5213 19.5758 94.2501 20.0599C93.979 20.544 93.5917 20.7861 93.0883 20.7861C92.3234 20.7861 91.8683 20.4472 91.7231 19.7694C91.6843 19.5952 91.6747 19.3531 91.694 19.0433C91.7134 18.7238 91.694 18.472 91.6359 18.288C91.5488 18.0073 91.3842 17.7943 91.1421 17.649C91.0066 17.5716 90.8178 17.5183 90.5757 17.4893C90.3143 17.4602 90.0577 17.4457 89.806 17.4457C89.593 17.4457 89.4477 17.4989 89.3703 17.6054C89.2928 17.712 89.2541 17.8523 89.2541 18.0266C89.2541 18.3171 89.2492 18.5834 89.2396 18.8254C89.2299 19.0578 89.225 19.3386 89.225 19.6678V21.2363C89.225 21.7398 89.288 22.1271 89.4138 22.3982C89.5397 22.6596 89.6995 22.8581 89.8931 22.9936C90.0868 23.1389 90.3094 23.2212 90.5612 23.2405C90.8226 23.2599 91.0501 23.3277 91.2438 23.4439C91.4181 23.5407 91.5633 23.6859 91.6795 23.8796C91.8054 24.0635 91.8683 24.3104 91.8683 24.6203C91.8683 25.3949 91.4858 25.9225 90.7209 26.2033C90.3046 26.3582 89.6511 26.4599 88.7603 26.5083C87.8792 26.5567 86.9206 26.5809 85.8846 26.5809Z" fill="#0F4841"/>
<path d="M89.4475 39.7246C89.5637 39.3761 89.6654 39.0808 89.7525 38.8387C89.8494 38.587 89.8978 38.3497 89.8978 38.1271C89.8978 37.7688 89.7332 37.5025 89.404 37.3283C89.2587 37.2508 89.1183 37.183 88.9828 37.1249C88.8472 37.0668 88.7214 36.9991 88.6052 36.9216C88.5277 36.8635 88.4454 36.7667 88.3583 36.6311C88.2711 36.4956 88.2276 36.2923 88.2276 36.0212C88.2276 35.1885 88.6584 34.6656 89.5202 34.4526C90.3819 34.2299 91.5873 34.1186 93.1365 34.1186C94.2596 34.1186 95.1068 34.2009 95.6781 34.3655C96.259 34.5301 96.6512 34.7528 96.8545 35.0336C97.0675 35.3047 97.174 35.6048 97.174 35.934C97.174 36.2148 97.1256 36.4423 97.0288 36.6166C96.9416 36.7812 96.8012 36.9216 96.6076 37.0378C96.3655 37.183 96.0751 37.2799 95.7362 37.3283C95.407 37.3767 95.0972 37.5171 94.8067 37.7494C94.4775 38.0012 94.158 38.4466 93.8481 39.0856C93.548 39.715 93.272 40.3249 93.0203 40.9156C91.7326 43.9074 90.6772 46.5022 89.8542 48.7001C89.0312 50.8883 88.305 52.7134 87.6757 54.1755C87.4046 54.7951 87.1238 55.2647 86.8333 55.5842C86.5428 55.9134 86.0878 56.078 85.4681 56.078C84.8969 56.078 84.4563 55.8118 84.1465 55.2793C83.8463 54.7467 83.4832 53.9963 83.0572 53.0281C82.5537 51.8662 82.1035 50.8206 81.7065 49.8911C81.3192 48.9519 80.9029 47.8965 80.4575 46.7249C80.3413 46.4151 80.2348 46.2166 80.138 46.1295C80.0509 46.0423 79.9395 45.9988 79.804 45.9988C79.5619 45.9988 79.3295 46.3183 79.1068 46.9573C78.7099 48.0998 78.3613 49.0874 78.0612 49.9201C77.7707 50.7431 77.4996 51.4935 77.2478 52.1712C76.9961 52.8393 76.725 53.5074 76.4345 54.1755C76.1634 54.7951 75.8826 55.2647 75.5922 55.5842C75.3017 55.9134 74.8466 56.078 74.227 56.078C73.8978 56.078 73.5976 56.0442 73.3265 55.9764C73.0554 55.9086 72.794 55.7295 72.5422 55.439C72.2905 55.1582 72.0242 54.6935 71.7435 54.0448C70.7171 51.6629 69.7053 49.315 68.7081 47.0009C67.7108 44.6771 66.6554 42.3824 65.5419 40.1168C65.3773 39.7876 65.1789 39.41 64.9465 38.9839C64.7238 38.5482 64.4914 38.282 64.2494 38.1852C64.0363 38.1077 63.8427 38.069 63.6684 38.069C63.4941 38.069 63.3053 38.0254 63.102 37.9383C62.7341 37.7833 62.5501 37.4396 62.5501 36.9071C62.5501 36.6553 62.6082 36.3891 62.7244 36.1083C62.8406 35.8275 63.0681 35.5758 63.407 35.3531C64.4817 34.6366 66.394 34.2783 69.1438 34.2783C70.0055 34.2783 70.7994 34.3316 71.5256 34.4381C72.2615 34.5349 72.8618 34.7044 73.3265 34.9464C73.9365 35.2563 74.2415 35.6823 74.2415 36.2245C74.2415 36.544 74.1786 36.7715 74.0527 36.9071C73.9849 36.9845 73.9074 37.062 73.8203 37.1395C73.7332 37.2072 73.6509 37.2847 73.5734 37.3718C73.4282 37.5364 73.3556 37.793 73.3556 38.1416C73.3556 38.374 73.4185 38.6354 73.5444 38.9258C73.6702 39.2066 73.7719 39.4535 73.8494 39.6665C74.014 40.141 74.1689 40.5476 74.3141 40.8865C74.469 41.2254 74.7062 41.7386 75.0258 42.426C75.171 42.7455 75.3356 43.0747 75.5195 43.4136C75.7035 43.7525 75.8875 43.9219 76.0714 43.9219C76.2264 43.9219 76.3474 43.8348 76.4345 43.6605C76.5313 43.4862 76.6766 43.2103 76.8702 42.8327C76.9477 42.6874 77.0251 42.5277 77.1026 42.3534C77.1801 42.1791 77.2769 41.9564 77.3931 41.6853C77.4802 41.4723 77.5528 41.2835 77.6109 41.1189C77.6787 40.9446 77.7126 40.8042 77.7126 40.6977C77.7126 40.5137 77.6012 40.1845 77.3786 39.7101C77.3301 39.6036 77.2769 39.4729 77.2188 39.318C77.1607 39.1534 77.0929 38.9791 77.0155 38.7951C76.8605 38.4175 76.7492 38.1513 76.6814 37.9963C76.6136 37.8317 76.5168 37.7107 76.391 37.6333C76.2554 37.5558 76.1247 37.4832 75.9988 37.4154C75.8826 37.3379 75.7519 37.2363 75.6067 37.1104C75.4905 37.0039 75.4034 36.8877 75.3453 36.7619C75.2872 36.6263 75.2581 36.4375 75.2581 36.1954C75.2581 35.7597 75.3695 35.4305 75.5922 35.2078C75.8149 34.9852 76.1537 34.806 76.6088 34.6705C77.1897 34.4865 77.9208 34.3752 78.8018 34.3364C79.6926 34.2977 80.6366 34.2783 81.6339 34.2783C82.331 34.2783 83.0282 34.3074 83.7253 34.3655C84.4224 34.4139 85.0082 34.5252 85.4826 34.6995C85.8409 34.8254 86.1071 34.9948 86.2814 35.2078C86.4557 35.4209 86.5428 35.6339 86.5428 35.8469C86.5428 36.3213 86.4363 36.636 86.2233 36.7909C86.1071 36.878 85.9668 36.9555 85.8022 37.0233C85.6472 37.0814 85.502 37.1443 85.3664 37.2121C85.2212 37.2799 85.1002 37.3767 85.0034 37.5025C84.9162 37.6284 84.8727 37.7882 84.8727 37.9818C84.8727 38.2142 84.9017 38.4127 84.9598 38.5773C85.0179 38.7322 85.0857 38.9162 85.1631 39.1292C85.318 39.5649 85.4826 39.9861 85.6569 40.3927C85.8312 40.7897 86.0829 41.4094 86.4121 42.2517C86.538 42.5809 86.6881 42.915 86.8624 43.2538C87.0366 43.583 87.2351 43.7476 87.4578 43.7476C87.6515 43.7476 87.8161 43.6411 87.9516 43.4281C88.0872 43.2054 88.2469 42.9004 88.4309 42.5131C88.5374 42.2904 88.6778 41.937 88.8521 41.4529C89.0264 40.9591 89.2248 40.383 89.4475 39.7246ZM99.313 46.173V42.397C99.313 40.964 99.2792 39.8844 99.2114 39.1582C99.1533 38.4224 99.0129 37.9479 98.7902 37.7349C98.6062 37.551 98.4077 37.4106 98.1947 37.3137C97.9914 37.2169 97.8316 37.1104 97.7155 36.9942C97.5896 36.8684 97.5025 36.7183 97.454 36.544C97.4153 36.36 97.3959 36.1954 97.3959 36.0502C97.3959 35.6629 97.4976 35.3628 97.7009 35.1497C97.9139 34.9271 98.1851 34.7431 98.5143 34.5979C98.9403 34.4139 99.4776 34.2735 100.126 34.1767C100.785 34.0702 101.627 34.0169 102.653 34.0169C103.573 34.0169 104.411 34.0605 105.166 34.1476C105.931 34.2348 106.497 34.351 106.865 34.4962C107.311 34.6705 107.683 34.8738 107.984 35.1062C108.284 35.3386 108.434 35.7113 108.434 36.2245C108.434 36.4181 108.4 36.6263 108.332 36.849C108.274 37.0717 108.143 37.2363 107.94 37.3428C107.698 37.4687 107.504 37.5558 107.359 37.6042C107.223 37.6526 107.049 37.7591 106.836 37.9237C106.546 38.1367 106.342 38.6063 106.226 39.3325C106.11 40.049 106.052 41.0995 106.052 42.4841V45.9842C106.052 46.4974 106.062 47.1025 106.081 47.7997C106.1 48.4871 106.134 49.1358 106.183 49.7458C106.241 50.3558 106.323 50.8012 106.43 51.082C106.497 51.2659 106.565 51.416 106.633 51.5322C106.701 51.6484 106.797 51.7355 106.923 51.7936C107.078 51.8711 107.214 51.9243 107.33 51.9534C107.456 51.9824 107.587 52.0308 107.722 52.0986C108.226 52.3407 108.477 52.7861 108.477 53.4348C108.477 53.9479 108.293 54.311 107.925 54.524C107.567 54.7274 107.219 54.8726 106.88 54.9597C106.405 55.0759 105.79 55.1873 105.035 55.2938C104.29 55.4003 103.476 55.4535 102.595 55.4535C101.753 55.4535 100.974 55.4003 100.257 55.2938C99.5406 55.1873 98.9015 55.042 98.34 54.8581C97.972 54.7322 97.6767 54.5482 97.454 54.3062C97.2313 54.0544 97.12 53.7737 97.12 53.4638C97.12 52.97 97.2313 52.6021 97.454 52.36C97.5993 52.1954 97.7542 52.0793 97.9188 52.0115C98.0931 51.9437 98.2238 51.8759 98.3109 51.8081C98.4174 51.721 98.5288 51.629 98.645 51.5322C98.7612 51.4257 98.858 51.2805 98.9354 51.0965C99.1097 50.6705 99.2162 50.0944 99.2549 49.3682C99.2937 48.642 99.313 47.577 99.313 46.173ZM112.659 49.0777C113.095 49.8717 113.695 50.4429 114.46 50.7915C115.235 51.1401 115.946 51.3143 116.595 51.3143C118.076 51.3143 118.817 50.9367 118.817 50.1815C118.817 49.9104 118.745 49.6829 118.599 49.4989C118.464 49.3053 118.183 49.1213 117.757 48.947C117.341 48.7631 116.716 48.5501 115.883 48.308C114.605 47.9401 113.468 47.4463 112.47 46.8266C111.483 46.1973 110.703 45.413 110.132 44.4738C109.571 43.5249 109.29 42.3873 109.29 41.0608C109.29 39.9376 109.517 38.9452 109.972 38.0835C110.427 37.2218 111.042 36.5004 111.817 35.9195C112.591 35.3289 113.468 34.8883 114.446 34.5979C115.423 34.2977 116.435 34.1476 117.481 34.1476C118.275 34.1476 118.87 34.1864 119.267 34.2638C119.664 34.3316 119.96 34.4042 120.153 34.4817C120.357 34.5494 120.55 34.5833 120.734 34.5833C121.005 34.5833 121.257 34.5107 121.489 34.3655C121.731 34.2106 122.012 34.1331 122.332 34.1331C122.709 34.1331 123.102 34.2929 123.508 34.6124C123.915 34.9222 124.288 35.3289 124.627 35.8324C124.975 36.3261 125.256 36.8587 125.469 37.4299C125.682 37.9915 125.788 38.5192 125.788 39.013C125.788 39.6133 125.59 40.1168 125.193 40.5234C124.796 40.9204 124.36 41.1189 123.886 41.1189C123.276 41.1189 122.729 40.9059 122.245 40.4799C122.07 40.3346 121.891 40.1749 121.707 40.0006C121.523 39.8166 121.339 39.6375 121.155 39.4632C120.817 39.1534 120.429 38.8871 119.994 38.6644C119.568 38.4417 119.069 38.3304 118.498 38.3304C118.013 38.3304 117.621 38.4369 117.321 38.6499C117.021 38.8629 116.871 39.1534 116.871 39.5213C116.871 39.8989 117.021 40.1942 117.321 40.4072C117.631 40.6202 118.038 40.7945 118.541 40.9301C119.045 41.0656 119.592 41.2109 120.182 41.3658C121.325 41.6659 122.371 42.0581 123.319 42.5422C124.278 43.0263 125.043 43.675 125.614 44.4883C126.195 45.3016 126.486 46.3619 126.486 47.669C126.486 48.8212 126.239 49.8814 125.745 50.8496C125.261 51.8081 124.588 52.6408 123.726 53.3476C122.874 54.0448 121.886 54.587 120.763 54.9743C119.65 55.3615 118.459 55.5552 117.191 55.5552C115.67 55.5552 114.315 55.3712 113.124 55.0033C111.933 54.6354 111.047 54.1609 110.466 53.58C110.302 53.4154 110.118 53.0814 109.914 52.5779C109.711 52.0744 109.532 51.4983 109.377 50.8496C109.232 50.1912 109.159 49.5619 109.159 48.9615C109.159 47.8384 109.595 47.2768 110.466 47.2768C110.834 47.2768 111.158 47.3833 111.439 47.5963C111.73 47.8094 111.977 48.0563 112.18 48.337C112.383 48.6178 112.543 48.8647 112.659 49.0777ZM132.069 55.3809C131.449 55.3809 130.834 55.3906 130.224 55.41C129.624 55.439 129.014 55.4535 128.394 55.4535C127.949 55.4535 127.644 55.3131 127.479 55.0324C127.315 54.7419 127.233 54.4369 127.233 54.1174C127.233 53.7591 127.291 53.4832 127.407 53.2895C127.533 53.0862 127.76 52.9507 128.089 52.8829C128.515 52.7861 128.82 52.5392 129.004 52.1422C129.092 51.9485 129.193 51.6387 129.309 51.2127C129.426 50.7867 129.503 50.2348 129.542 49.557C129.581 48.7631 129.614 48.0901 129.643 47.5383C129.672 46.9767 129.692 46.3909 129.702 45.7809C129.711 45.1709 129.716 44.3867 129.716 43.4281C129.716 42.4986 129.702 41.7531 129.672 41.1915C129.643 40.6299 129.605 40.17 129.556 39.8118C129.508 39.4438 129.455 39.1001 129.397 38.7806C129.338 38.432 129.242 38.1561 129.106 37.9528C128.98 37.7398 128.835 37.5752 128.67 37.459C128.496 37.3428 128.307 37.2605 128.104 37.2121C127.901 37.1637 127.726 37.0862 127.581 36.9797C127.455 36.8926 127.354 36.7812 127.276 36.6457C127.208 36.5004 127.174 36.3068 127.174 36.0647C127.174 35.3773 127.402 34.898 127.857 34.6269C128.312 34.3558 129.111 34.2202 130.253 34.2202C130.747 34.2202 131.265 34.2299 131.807 34.2493C132.359 34.2687 132.858 34.2783 133.303 34.2783H140.783C141.306 34.2783 141.698 34.259 141.959 34.2202C142.23 34.1815 142.439 34.1379 142.584 34.0895C142.739 34.0411 142.889 33.9976 143.034 33.9588C143.179 33.9201 143.392 33.9007 143.673 33.9007C144.128 33.9007 144.525 34.1186 144.864 34.5543C145.203 34.99 145.469 35.5806 145.663 36.3261C145.856 37.062 145.953 37.8898 145.953 38.8097C145.953 39.3422 145.794 39.7634 145.474 40.0732C145.164 40.3734 144.762 40.5234 144.269 40.5234C143.91 40.5234 143.649 40.4411 143.484 40.2765C143.329 40.1022 143.107 39.7634 142.816 39.2599C142.603 38.8726 142.342 38.5724 142.032 38.3594C141.732 38.1367 141.315 37.9576 140.783 37.8221C140.415 37.7349 140.062 37.6817 139.723 37.6623C139.384 37.6333 138.987 37.6187 138.532 37.6187C137.622 37.6187 137.021 37.7059 136.731 37.8802C136.45 38.0544 136.276 38.2432 136.208 38.4466C136.14 38.6499 136.097 39.0711 136.077 39.7101C136.068 40.3491 136.063 41.114 136.063 42.0048C136.063 42.3437 136.077 42.5906 136.106 42.7455C136.145 42.9004 136.266 43.0069 136.469 43.065C136.682 43.1231 136.891 43.157 137.094 43.1667C137.307 43.1764 137.539 43.1812 137.791 43.1812C138.111 43.1812 138.362 43.0844 138.546 42.8907C138.73 42.6971 138.832 42.4647 138.851 42.1936C138.871 41.9032 138.89 41.6708 138.909 41.4965C138.938 41.3125 138.972 41.1286 139.011 40.9446C139.059 40.7025 139.171 40.4799 139.345 40.2765C139.519 40.0635 139.815 39.957 140.231 39.957C140.86 39.957 141.32 40.3346 141.611 41.0898C141.911 41.8354 142.061 43.0215 142.061 44.6481C142.061 46.4296 141.863 47.6593 141.466 48.337C141.078 49.0148 140.58 49.3537 139.97 49.3537C139.321 49.3537 138.997 48.8454 138.997 47.8287C138.997 47.4898 138.909 47.1558 138.735 46.8266C138.571 46.4877 138.164 46.3183 137.515 46.3183C137.118 46.3183 136.842 46.3522 136.687 46.4199C136.532 46.478 136.421 46.5942 136.353 46.7685C136.276 46.9622 136.237 47.2478 136.237 47.6254C136.237 48.003 136.237 48.3177 136.237 48.5694C136.237 49.0148 136.256 49.4408 136.295 49.8475C136.344 50.2541 136.431 50.806 136.557 51.5032C136.586 51.6581 136.629 51.7743 136.687 51.8517C136.745 51.9195 136.871 51.9727 137.065 52.0115C137.346 52.0696 137.656 52.1083 137.994 52.1277C138.333 52.1373 138.706 52.1422 139.113 52.1422C139.732 52.1422 140.207 52.1228 140.536 52.0841C140.875 52.0357 141.199 51.9776 141.509 51.9098C141.79 51.842 142.119 51.6581 142.497 51.3579C142.874 51.0578 143.194 50.7237 143.455 50.3558C143.707 49.9976 143.896 49.6538 144.022 49.3246C144.148 48.9858 144.307 48.7098 144.501 48.4968C144.704 48.2741 145.024 48.1628 145.459 48.1628C146.099 48.1628 146.51 48.3709 146.694 48.7873C146.888 49.2036 146.984 49.6974 146.984 50.2687C146.984 50.7528 146.897 51.3047 146.723 51.9243C146.558 52.544 146.341 53.1443 146.069 53.7252C145.808 54.2965 145.532 54.7709 145.242 55.1485C144.951 55.5261 144.685 55.715 144.443 55.715C144.123 55.715 143.61 55.652 142.903 55.5261C142.206 55.41 141.354 55.3519 140.347 55.3519C139.495 55.3519 138.677 55.3567 137.893 55.3664C137.118 55.3761 136.421 55.3809 135.801 55.3809H132.069Z" fill="#0F4841"/>
<g clip-path="url(#clip0_370_12727)">
<path d="M46.4749 43.6188C45.2162 45.9425 44.1028 48.2663 43.0861 50.6868C42.2147 52.8654 41.1013 55.2859 40.9076 57.6097C40.5203 62.1604 45.4099 64.0968 49.2828 64C53.4946 63.9032 57.2223 61.6278 59.3524 58.0454C61.9666 53.6884 61.9666 48.5083 61.5793 43.6188C61.4341 41.7791 58.5294 41.7307 58.6746 43.6188C59.2072 49.9607 58.8683 59.062 51.1224 60.8533C49.5733 61.1921 47.9273 61.1921 46.4265 60.708C45.1194 60.2723 43.8607 59.643 43.8123 57.997C43.7639 57.174 44.2964 55.9153 44.5385 55.1407C45.7004 51.6551 47.2495 48.2663 48.9923 45.0711C49.8637 43.4251 47.3463 41.9728 46.4749 43.6188Z" fill="#0F4841"/>
<path d="M31.1281 36.5507C32.2416 39.2133 34.9526 41.3434 37.2764 42.8926C39.6969 44.4902 42.5048 45.5552 45.4579 45.6521C51.8482 45.7973 55.7211 41.1982 57.5608 35.5341C58.2385 33.3555 58.8195 30.5477 56.8346 28.8533C55.2854 27.4977 51.7514 26.9652 50.2506 28.6596C48.7015 30.4024 49.3792 33.3071 50.057 35.2436C50.9768 37.9062 52.526 40.3268 54.6561 42.1664C59.6425 46.4751 67.1462 46.8623 72.4231 42.8926C73.8754 41.7791 72.4715 39.2617 70.9708 40.3752C67.0494 43.3283 61.6273 43.6188 57.5124 40.7141C55.5759 39.3586 54.0267 37.3253 53.1069 35.0984C52.7196 34.1301 52.3807 33.0167 52.2839 32C52.2355 31.2738 52.0903 30.9834 52.768 30.6929C53.9299 30.1604 55.1886 31.1286 55.3338 32.3873C55.5275 34.3722 53.9783 37.2285 52.9617 38.7776C51.4609 41.1498 49.0888 42.6021 46.2325 42.699C41.6334 42.941 35.4851 39.3586 33.6455 35.0499C32.8709 33.3555 30.4019 34.8563 31.1281 36.5507Z" fill="#0F4841"/>
<path d="M52.6711 41.4402C52.8163 45.2163 51.9933 48.7504 50.2021 52.0908C49.3307 53.7368 51.7996 55.1891 52.7195 53.5431C54.7527 49.767 55.721 45.7004 55.5757 41.4402C55.5273 39.6006 52.6226 39.6006 52.6711 41.4402Z" fill="#0F4841"/>
</g>
<defs>
<clipPath id="clip0_370_12727">
<rect width="42.0212" height="36.4054" fill="white" transform="translate(30.9832 27.5946)"/>
</clipPath>
</defs>
</svg>
