<svg width="97" height="97" viewBox="0 0 97 97" fill="none" xmlns="http://www.w3.org/2000/svg">
<g clip-path="url(#clip0_370_12771)">
<path d="M55.9342 53.8968C54.802 50.7126 52.4926 48.0834 49.4811 46.5499C46.4695 45.0164 42.9849 44.6953 39.7438 45.6526L25.2774 49.9152C17.0905 52.1524 16.1765 63.9325 23.9254 67.4C28.079 69.3765 32.4757 68.9724 36.8623 71.3068C41.4903 73.5627 43.9568 77.1469 47.8911 79.6033C55.2302 83.5543 63.9635 75.8942 60.9862 68.0981L55.9342 53.8968Z" fill="white" fill-opacity="0.2"/>
<path d="M79.655 48.8844C76.2189 46.1909 71.1378 48.9524 68.5157 52.2234C60.4713 62.3864 70.3455 70.1328 78.5068 60.4572C81.9531 56.2844 82.4568 51.1921 79.655 48.8844Z" fill="white" fill-opacity="0.2"/>
<path d="M60.3602 46.7618C64.1579 48.6956 69.4445 45.9507 72.1416 40.6538C78.2554 27.708 65.2431 21.0822 58.3798 33.6463C55.6827 38.9432 56.5724 44.8331 60.3602 46.7618Z" fill="white" fill-opacity="0.2"/>
<path d="M33.6965 34.4936C34.8095 30.4541 34.044 24.7155 29.8446 23.5211C21.8579 21.7071 17.1769 38.3148 24.0724 41.8763C28.0563 43.7413 32.1807 40.1151 33.6965 34.4936Z" fill="white" fill-opacity="0.2"/>
<path d="M42.9106 37.8765C46.6983 39.8052 51.9849 37.0602 54.682 31.7634C60.8058 18.8227 47.7935 12.1969 40.9202 24.7559C38.2231 30.0527 39.1128 35.9426 42.9106 37.8765Z" fill="white" fill-opacity="0.2"/>
</g>
<defs>
<clipPath id="clip0_370_12771">
<rect width="71.7766" height="71.7766" fill="white" transform="translate(32.9111) rotate(26.9851)"/>
</clipPath>
</defs>
</svg>
