<svg width="107" height="107" viewBox="0 0 107 107" fill="none" xmlns="http://www.w3.org/2000/svg">
<g id="fi_4225935" clip-path="url(#clip0_370_12797)">
<g id="Layer 15">
<path id="Vector" d="M63.6701 51.254C60.0802 49.8294 56.0809 49.8345 52.4947 51.2685C48.9085 52.7025 46.0082 55.4562 44.3903 58.9633L37.1601 74.6093C32.9178 83.3318 42.3561 92.989 51.1725 88.9391C55.9996 86.8571 58.9633 82.7732 64.2736 80.7603C69.6981 78.4808 74.6367 79.0597 79.7113 77.5275C88.6347 74.194 88.6267 60.9178 79.6827 57.606L63.6701 51.254Z" fill="#FAF4EF"/>
<path id="Vector_2" d="M77.2253 27.0881C72.3221 28.0134 70.8695 34.4609 71.7068 39.1784C74.385 53.7473 88.4803 51.0928 86.309 36.7905C85.3172 30.6854 81.3191 26.4174 77.2253 27.0881Z" fill="#FAF4EF"/>
<path id="Vector_3" d="M60.8698 42.076C65.3922 40.2677 67.0138 33.6559 64.4917 27.3484C57.9672 12.3434 42.472 18.5394 48.1039 33.9012C50.626 40.2088 56.3593 43.8796 60.8698 42.076Z" fill="#FAF4EF"/>
<path id="Vector_4" d="M30.2434 55.758C27.6091 51.7591 22.0996 48.0955 17.9103 50.806C10.3361 56.3055 21.0875 72.8366 29.3421 69.5911C33.9454 67.5709 33.9343 61.2946 30.2434 55.758Z" fill="#FAF4EF"/>
<path id="Vector_5" d="M40.0905 50.3849C44.601 48.5813 46.2226 41.9696 43.7005 35.662C37.1879 20.6523 21.6927 26.8483 27.3127 42.2149C29.8349 48.5225 35.5681 52.1933 40.0905 50.3849Z" fill="#FAF4EF"/>
</g>
</g>
<defs>
<clipPath id="clip0_370_12797">
<rect width="82.0304" height="82.0304" fill="white" transform="translate(0 30.4564) rotate(-21.7947)"/>
</clipPath>
</defs>
</svg>
