<svg width="107" height="107" viewBox="0 0 107 107" fill="none" xmlns="http://www.w3.org/2000/svg">
<g clip-path="url(#clip0_370_12764)">
<path d="M63.6701 51.6307C60.0802 50.206 56.0809 50.2112 52.4947 51.6452C48.9085 53.0791 46.0082 55.8329 44.3903 59.34L37.1601 74.9859C32.9178 83.7085 42.3561 93.3657 51.1725 89.3158C55.9996 87.2338 58.9633 83.1499 64.2735 81.1369C69.6981 78.8574 74.6367 79.4364 79.7113 77.9042C88.6347 74.5707 88.6267 61.2945 79.6827 57.9827L63.6701 51.6307Z" fill="white" fill-opacity="0.2"/>
<path d="M77.2252 27.4647C72.3221 28.39 70.8695 34.8375 71.7067 39.555C74.385 54.1239 88.4803 51.4694 86.309 37.1671C85.3172 31.062 81.3191 26.794 77.2252 27.4647Z" fill="white" fill-opacity="0.2"/>
<path d="M60.8698 42.4527C65.3922 40.6443 67.0138 34.0326 64.4917 27.725C57.9672 12.7201 42.472 18.916 48.1039 34.2779C50.626 40.5855 56.3593 44.2563 60.8698 42.4527Z" fill="white" fill-opacity="0.2"/>
<path d="M30.2434 56.1347C27.6091 52.1358 22.0996 48.4722 17.9103 51.1826C10.3361 56.6821 21.0875 73.2132 29.3421 69.9677C33.9454 67.9476 33.9343 61.6712 30.2434 56.1347Z" fill="white" fill-opacity="0.2"/>
<path d="M40.0905 50.7616C44.601 48.958 46.2227 42.3462 43.7005 36.0387C37.1879 21.029 21.6927 27.2249 27.3127 42.5915C29.8349 48.8991 35.5681 52.5699 40.0905 50.7616Z" fill="white" fill-opacity="0.2"/>
</g>
<defs>
<clipPath id="clip0_370_12764">
<rect width="82.0304" height="82.0304" fill="white" transform="translate(0 30.833) rotate(-21.7947)"/>
</clipPath>
</defs>
</svg>
