<svg width="107" height="107" viewBox="0 0 107 107" fill="none" xmlns="http://www.w3.org/2000/svg">
<g id="fi_4225935" clip-path="url(#clip0_370_12804)">
<g id="Layer 15">
<path id="Vector" d="M43.2024 51.6307C46.7923 50.206 50.7916 50.2112 54.3778 51.6452C57.964 53.0792 60.8643 55.8329 62.4821 59.34L69.7123 74.9859C73.9547 83.7085 64.5164 93.3657 55.7 89.3158C50.8729 87.2338 47.9092 83.1499 42.5989 81.1369C37.1744 78.8574 32.2357 79.4364 27.1612 77.9042C18.2378 74.5707 18.2457 61.2945 27.1898 57.9827L43.2024 51.6307Z" fill="#FAF4EF"/>
<path id="Vector_2" d="M29.6473 27.4648C34.5504 28.39 36.003 34.8376 35.1658 39.555C32.4875 54.124 18.3922 51.4694 20.5636 37.1671C21.5554 31.062 25.5534 26.794 29.6473 27.4648Z" fill="#FAF4EF"/>
<path id="Vector_3" d="M46.0028 42.4527C41.4804 40.6444 39.8587 34.0326 42.3809 27.7251C48.9054 12.7201 64.4006 18.9161 58.7687 34.2779C56.2465 40.5855 50.5133 44.2563 46.0028 42.4527Z" fill="#FAF4EF"/>
<path id="Vector_4" d="M76.6291 56.1347C79.2634 52.1358 84.7729 48.4722 88.9622 51.1826C96.5363 56.6822 85.785 73.2133 77.5304 69.9678C72.927 67.9476 72.9382 61.6713 76.6291 56.1347Z" fill="#FAF4EF"/>
<path id="Vector_5" d="M66.782 50.7616C62.2715 48.958 60.6499 42.3463 63.172 36.0387C69.6846 21.029 85.1798 27.225 79.5598 42.5916C77.0377 48.8991 71.3044 52.5699 66.782 50.7616Z" fill="#FAF4EF"/>
</g>
</g>
<defs>
<clipPath id="clip0_370_12804">
<rect width="82.0304" height="82.0304" fill="white" transform="matrix(-0.92852 -0.371281 -0.371281 0.92852 106.873 30.833)"/>
</clipPath>
</defs>
</svg>
