<svg width="24" height="25" viewBox="0 0 24 25" fill="none" xmlns="http://www.w3.org/2000/svg">
<g id="fi_149763" clip-path="url(#clip0_370_12787)">
<path id="Vector" d="M23.4813 11.4253C23.9537 10.9649 24.1205 10.2892 23.9167 9.66112C23.7125 9.03301 23.1805 8.58463 22.5269 8.48948L16.7158 7.6451C16.4683 7.60906 16.2544 7.45383 16.1439 7.2294L13.5459 1.96421C13.2542 1.37262 12.6621 1.00497 12.0023 1.00497C11.3429 1.00497 10.7508 1.37262 10.4591 1.96421L7.86065 7.22988C7.75012 7.45431 7.53578 7.60954 7.28828 7.64558L1.47715 8.48996C0.824044 8.58463 0.291565 9.03349 0.0873198 9.6616C-0.116445 10.2897 0.0503154 10.9654 0.522722 11.4258L4.72729 15.5242C4.90654 15.6991 4.98872 15.9509 4.94643 16.197L3.95452 21.9841C3.86658 22.4935 4.00018 22.989 4.32985 23.3797C4.84215 23.9886 5.7365 24.1741 6.4516 23.7982L11.6486 21.0657C11.8658 20.9518 12.1392 20.9528 12.356 21.0657L17.5534 23.7982C17.8062 23.9314 18.0758 23.9986 18.354 23.9986C18.862 23.9986 19.3436 23.7728 19.6747 23.3797C20.0048 22.989 20.1379 22.4925 20.05 21.9841L19.0576 16.197C19.0153 15.9504 19.0975 15.6991 19.2768 15.5242L23.4813 11.4253Z" fill="#FFEB0C"/>
</g>
<defs>
<clipPath id="clip0_370_12787">
<rect width="24" height="24" fill="white" transform="translate(0 0.5)"/>
</clipPath>
</defs>
</svg>
