<svg width="49" height="48" viewBox="0 0 49 48" fill="none" xmlns="http://www.w3.org/2000/svg">
<g clip-path="url(#clip0_370_12838)">
<mask id="mask0_370_12838" style="mask-type:luminance" maskUnits="userSpaceOnUse" x="0" y="0" width="49" height="48">
<path d="M46.6667 46.5V1.5H1.66669V46.5H46.6667Z" fill="white" stroke="white" stroke-width="3"/>
</mask>
<g mask="url(#mask0_370_12838)">
<path d="M39.1195 31.125C43.079 26.3477 46.3383 21.0623 46.3383 16.4689C46.3383 7.55466 41.3853 4.03125 35.2758 4.03125C26.7445 4.03125 24.2133 11.7188 24.2133 11.7188" stroke="#0F4841" stroke-width="3" stroke-miterlimit="10" stroke-linecap="round" stroke-linejoin="round"/>
<path d="M33.7322 36.9375C31.1051 39.5082 28.6826 41.6509 26.884 43.0514C25.3131 44.2745 23.1134 44.2745 21.5426 43.0514C19.7439 41.6509 17.2277 39.5082 14.6006 36.9375" stroke="#0F4841" stroke-width="3" stroke-miterlimit="10" stroke-linecap="round" stroke-linejoin="round"/>
<path d="M24.2132 11.7188C24.2132 11.7188 21.9632 4.03125 13.1507 4.03125C7.04113 4.03125 2.08823 7.55466 2.08823 16.4689C2.08823 21.1436 5.39479 26.5642 9.45144 31.4062" stroke="#0F4841" stroke-width="3" stroke-miterlimit="10" stroke-linecap="round" stroke-linejoin="round"/>
<path d="M23.2289 32.8125H25.1039C25.311 32.8125 25.4789 32.6446 25.4789 32.4375V30.5625C25.4789 30.3554 25.311 30.1875 25.1039 30.1875H23.2289C23.0217 30.1875 22.8539 30.3554 22.8539 30.5625V32.4375C22.8539 32.6446 23.0217 32.8125 23.2289 32.8125Z" fill="black" stroke="#0F4841" stroke-width="3"/>
<path d="M2.04138 39.0938L21.5779 19.4285C22.9985 18.1529 25.1508 18.1484 26.5768 19.418L46.2914 39.0938" stroke="#0F4841" stroke-width="3" stroke-miterlimit="10" stroke-linecap="round" stroke-linejoin="round"/>
<path d="M35.1351 19.3125V27.75" stroke="#0F4841" stroke-width="3" stroke-miterlimit="10" stroke-linecap="round"/>
</g>
</g>
<defs>
<clipPath id="clip0_370_12838">
<rect width="48" height="48" fill="white" transform="translate(0.166687)"/>
</clipPath>
</defs>
</svg>
