<svg width="49" height="48" viewBox="0 0 49 48" fill="none" xmlns="http://www.w3.org/2000/svg">
<g clip-path="url(#clip0_370_12861)">
<circle cx="31.6683" cy="24.3749" r="1.87482" fill="#0F4841"/>
<circle cx="16.6699" cy="24.3749" r="1.87482" fill="#0F4841"/>
<path d="M20.4195 31.1244H27.9188" stroke="#0F4841" stroke-width="3" stroke-miterlimit="10" stroke-linecap="round" stroke-linejoin="round"/>
<path d="M15.3577 42.3732C10.1805 42.3732 5.98358 38.1762 5.98358 32.9991C5.98358 32.3212 6.05557 31.6601 6.19225 31.0231L8.91898 19.0648" stroke="#0F4841" stroke-width="3" stroke-miterlimit="10" stroke-linecap="round" stroke-linejoin="round"/>
<path d="M33.0418 42.3733H31.6685C27.5268 42.3733 24.1692 39.0158 24.1692 34.874M24.1692 34.874V31.1244M24.1692 34.874C24.1692 39.0158 20.8117 42.3733 16.67 42.3733H15.3576" stroke="#0F4841" stroke-width="3" stroke-miterlimit="10" stroke-linecap="round" stroke-linejoin="round"/>
<path d="M41.118 26.6963L42.2073 31.0231C42.344 31.6601 42.416 32.3212 42.416 32.9991C42.416 38.1763 38.219 42.3732 33.0419 42.3732" stroke="#0F4841" stroke-width="3" stroke-miterlimit="10" stroke-linecap="round" stroke-linejoin="round"/>
<path d="M32.4891 8.49408C30.0135 6.69079 27.4663 5.62683 24.1691 5.62683C20.8301 5.62683 18.3083 6.71797 15.816 8.56317" stroke="#0F4841" stroke-width="3" stroke-miterlimit="10" stroke-linecap="round" stroke-linejoin="round"/>
<path d="M20.4195 41.37V42.3733C20.4195 44.4441 22.0983 46.1229 24.1691 46.1229C26.24 46.1229 27.9188 44.4441 27.9188 42.3733V41.37" stroke="#0F4841" stroke-width="3" stroke-miterlimit="10" stroke-linecap="round" stroke-linejoin="round"/>
<path d="M12.8674 15.725L16.4364 7.0562C16.9954 5.69827 16.7233 4.07871 15.6202 2.97556C14.1558 1.51124 11.7817 1.51124 10.3173 2.97556L3.68884 9.60407C1.49239 11.8005 1.49239 15.3617 3.68884 17.5582C5.88528 19.7546 9.44649 19.7546 11.643 17.5582C12.1848 17.0164 12.5929 16.3918 12.8674 15.725Z" stroke="#0F4841" stroke-width="3" stroke-miterlimit="10" stroke-linecap="round" stroke-linejoin="round"/>
<path d="M35.4661 15.7249L31.8971 7.05607C31.3381 5.69814 31.6102 4.07858 32.7133 2.97544C34.1777 1.51112 36.5518 1.51112 38.0162 2.97544L44.6447 9.60395C46.8411 11.8004 46.8411 15.3616 44.6447 17.558C42.4482 19.7545 38.887 19.7545 36.6905 17.558C36.1488 17.0164 35.7407 16.3917 35.4661 15.7249Z" stroke="#0F4841" stroke-width="3" stroke-miterlimit="10" stroke-linecap="round" stroke-linejoin="round"/>
<path d="M12.8674 15.725L16.4364 7.0562C16.9954 5.69827 16.7233 4.07871 15.6202 2.97556C14.1558 1.51124 11.7817 1.51124 10.3173 2.97556L3.68884 9.60407C1.49239 11.8005 1.49239 15.3617 3.68884 17.5582C5.88528 19.7546 9.44649 19.7546 11.643 17.5582C12.1848 17.0164 12.5929 16.3918 12.8674 15.725Z" stroke="#0F4841" stroke-width="3" stroke-miterlimit="10" stroke-linecap="round" stroke-linejoin="round"/>
<path d="M35.4661 15.7249L31.8971 7.05607C31.3381 5.69814 31.6102 4.07858 32.7133 2.97544C34.1777 1.51112 36.5518 1.51112 38.0162 2.97544L44.6447 9.60395C46.8411 11.8004 46.8411 15.3616 44.6447 17.558C42.4482 19.7545 38.887 19.7545 36.6905 17.558C36.1488 17.0164 35.7407 16.3917 35.4661 15.7249Z" stroke="#0F4841" stroke-width="3" stroke-miterlimit="10" stroke-linecap="round" stroke-linejoin="round"/>
</g>
<defs>
<clipPath id="clip0_370_12861">
<rect width="48" height="48" fill="white" transform="translate(0.166687)"/>
</clipPath>
</defs>
</svg>
